<svg width="158" height="156" viewBox="0 0 158 156" fill="none" xmlns="http://www.w3.org/2000/svg">
<path d="M153.35 138.067C155.945 132.46 157.29 126.353 157.293 120.172C157.295 113.991 155.955 107.884 153.365 102.275C150.775 96.6654 146.998 91.6892 142.296 87.692C137.593 83.6947 132.079 80.7724 126.137 79.1283L122.528 92.2093C126.576 93.328 130.333 95.3175 133.536 98.0395C136.74 100.761 139.313 104.15 141.078 107.971C142.843 111.791 143.757 115.951 143.755 120.161C143.754 124.372 142.838 128.531 141.071 132.351L153.35 138.067Z" fill="#0A6847"/>
<path d="M152.641 156C153.391 156.001 154.127 155.793 154.766 155.4C155.405 155.007 155.924 154.445 156.264 153.775C157.214 151.904 157.787 149.863 157.951 147.77C158.115 145.677 157.866 143.572 157.218 141.575C155.91 137.543 153.058 134.196 149.289 132.272C147.423 131.319 145.388 130.744 143.3 130.58C141.213 130.416 139.113 130.666 137.122 131.315C133.1 132.627 129.762 135.486 127.843 139.265C127.367 140.226 127.288 141.337 127.624 142.356C127.96 143.375 128.683 144.22 129.637 144.707C130.591 145.194 131.698 145.283 132.717 144.957C133.737 144.63 134.586 143.913 135.081 142.961C136.023 141.107 137.66 139.704 139.634 139.06C141.607 138.416 143.755 138.585 145.604 139.529C147.453 140.473 148.853 142.115 149.495 144.093C150.137 146.072 149.968 148.225 149.027 150.079C148.712 150.7 148.561 151.391 148.588 152.087C148.616 152.783 148.82 153.46 149.183 154.054C149.546 154.648 150.054 155.139 150.66 155.479C151.266 155.82 151.949 155.999 152.643 156H152.641Z" fill="#292A2E"/>
<path d="M48.231 98.8407C55.7333 98.8463 63.1008 96.8426 69.5719 93.0367L62.7382 81.3193C56.9729 84.6893 50.2224 85.9558 43.6318 84.904C37.0412 83.8522 31.0165 80.5468 26.5796 75.5486L16.4644 84.5696C23.6796 92.7281 33.7537 97.7841 44.5917 98.6859C45.8076 98.7894 47.0207 98.841 48.231 98.8407Z" fill="#0A6847"/>
<path d="M13.2518 86.8052C16.2745 86.7995 19.2333 85.9326 21.7835 84.3055C24.3336 82.6784 26.37 80.3581 27.6553 77.615C28.9406 74.872 29.4219 71.8191 29.043 68.8123C28.6641 65.8055 27.4408 62.9686 25.5155 60.6322C25.1757 60.22 24.7583 59.8788 24.2871 59.6283C23.8158 59.3778 23.3 59.2228 22.769 59.1722C22.238 59.1216 21.7023 59.1763 21.1924 59.3333C20.6826 59.4902 20.2085 59.7464 19.7973 60.087C19.3862 60.4277 19.046 60.8462 18.7961 61.3187C18.5463 61.7911 18.3917 62.3083 18.3412 62.8407C18.2907 63.3731 18.3453 63.9102 18.5019 64.4215C18.6584 64.9327 18.9138 65.408 19.2536 65.8202C20.5668 67.4248 21.1921 69.4858 20.9926 71.5518C20.793 73.6178 19.7849 75.5202 18.1891 76.8423C16.5933 78.1645 14.5398 78.7985 12.4786 78.6055C10.4174 78.4125 8.51657 77.4083 7.19247 75.8128C6.85272 75.4005 6.43531 75.0594 5.96407 74.8089C5.49284 74.5584 4.977 74.4034 4.44603 74.3528C3.91505 74.3022 3.37933 74.3569 2.86945 74.5139C2.35957 74.6708 1.88552 74.9269 1.47436 75.2676C1.0632 75.6082 0.72299 76.0267 0.473146 76.4992C0.223301 76.9717 0.0687256 77.4889 0.0182323 78.0213C-0.032259 78.5537 0.0223217 79.0908 0.178867 79.602C0.335415 80.1133 0.590857 80.5886 0.930609 81.0008C2.26065 82.6236 3.89848 83.9658 5.7493 84.9497C7.60012 85.9336 9.62719 86.5397 11.7132 86.7329C12.228 86.7817 12.7408 86.8058 13.2518 86.8052Z" fill="#292A2E"/>
<path d="M135.227 79.8408L126.251 130.732C125.091 137.31 121.657 143.269 116.552 147.562C111.447 151.855 104.996 154.208 98.3333 154.209C91.8373 154.209 85.5384 151.972 80.4903 147.873C75.4422 143.774 71.9512 138.061 70.6014 131.69L59.6149 79.8408H135.227Z" fill="#0A6847"/>
<path d="M97.4214 91.0479C76.5419 91.0479 59.6158 86.0303 59.6158 79.8408C59.6158 73.6514 76.5419 68.6338 97.4214 68.6338C118.301 68.6338 135.227 73.6514 135.227 79.8408C135.227 86.0303 118.301 91.0479 97.4214 91.0479Z" fill="#292A2E"/>
<path d="M60.4816 49.7604C60.4816 66.238 77.0219 74.166 97.4221 74.166C117.822 74.166 134.362 66.238 134.362 49.7604C134.362 33.2828 117.822 14.4955 97.4221 14.4955C77.0223 14.4955 60.4816 33.2828 60.4816 49.7604Z" fill="#0A6847"/>
<path d="M77.2336 29.7646H98.2459C104.832 29.7646 110.171 35.1179 110.171 41.7215V41.722C110.171 48.3256 104.832 53.6789 98.2459 53.6789H77.2336C70.6474 53.6789 65.3082 48.3256 65.3082 41.722V41.7215C65.3082 35.1179 70.6474 29.7646 77.2336 29.7646Z" fill="white"/>
<path d="M88.3656 46.0686C88.7246 46.0686 89.0689 45.9256 89.3228 45.671C89.5767 45.4165 89.7193 45.0712 89.7193 44.7113C89.7134 44.1006 89.8282 43.4948 90.0571 42.9289C90.2861 42.363 90.6246 41.8482 91.0532 41.4142C91.4818 40.9803 91.9918 40.6358 92.554 40.4008C93.1161 40.1657 93.7192 40.0446 94.3283 40.0446C94.9373 40.0446 95.5404 40.1657 96.1025 40.4008C96.6647 40.6358 97.1748 40.9803 97.6034 41.4142C98.0319 41.8482 98.3705 42.363 98.5994 42.9289C98.8284 43.4948 98.9432 44.1006 98.9372 44.7113C98.9372 45.0712 99.0798 45.4165 99.3337 45.671C99.5876 45.9256 99.9319 46.0686 100.291 46.0686C100.65 46.0686 100.994 45.9256 101.248 45.671C101.502 45.4165 101.645 45.0712 101.645 44.7113C101.652 43.7431 101.468 42.7831 101.104 41.8864C100.74 40.9898 100.202 40.1744 99.522 39.4871C98.8419 38.7998 98.0328 38.2544 97.1414 37.8821C96.25 37.5099 95.2939 37.3182 94.3283 37.3182C93.3626 37.3182 92.4066 37.5099 91.5152 37.8821C90.6238 38.2544 89.8147 38.7998 89.1345 39.4871C88.4544 40.1744 87.9167 40.9898 87.5524 41.8864C87.188 42.7831 87.0043 43.7431 87.0119 44.7113C87.0118 44.8895 87.0468 45.066 87.1148 45.2307C87.1828 45.3954 87.2825 45.5451 87.4082 45.6712C87.5339 45.7972 87.6832 45.8972 87.8475 45.9654C88.0117 46.0336 88.1878 46.0686 88.3656 46.0686Z" fill="#292A2E"/>
<path d="M69.9527 46.0686C70.3117 46.0686 70.656 45.9256 70.9099 45.671C71.1638 45.4165 71.3064 45.0712 71.3064 44.7113C71.3004 44.1006 71.4152 43.4948 71.6442 42.9289C71.8731 42.363 72.2117 41.8482 72.6403 41.4142C73.0688 40.9803 73.5789 40.6358 74.1411 40.4008C74.7032 40.1657 75.3063 40.0446 75.9153 40.0446C76.5244 40.0446 77.1275 40.1657 77.6896 40.4008C78.2518 40.6358 78.7619 40.9803 79.1904 41.4142C79.619 41.8482 79.9576 42.363 80.1865 42.9289C80.4155 43.4948 80.5303 44.1006 80.5243 44.7113C80.5243 45.0712 80.6669 45.4165 80.9208 45.671C81.1747 45.9256 81.519 46.0686 81.878 46.0686C82.2371 46.0686 82.5814 45.9256 82.8353 45.671C83.0891 45.4165 83.2318 45.0712 83.2318 44.7113C83.2393 43.7431 83.0556 42.7831 82.6913 41.8864C82.3269 40.9898 81.7892 40.1744 81.1091 39.4871C80.4289 38.7998 79.6198 38.2544 78.7284 37.8821C77.837 37.5099 76.881 37.3182 75.9153 37.3182C74.9497 37.3182 73.9937 37.5099 73.1023 37.8821C72.2109 38.2544 71.4018 38.7998 70.7216 39.4871C70.0415 40.1744 69.5038 40.9898 69.1394 41.8864C68.7751 42.7831 68.5914 43.7431 68.5989 44.7113C68.5989 44.8895 68.6339 45.066 68.7019 45.2307C68.7699 45.3954 68.8696 45.5451 68.9953 45.6712C69.121 45.7972 69.2703 45.8972 69.4345 45.9654C69.5988 46.0336 69.7749 46.0686 69.9527 46.0686Z" fill="#292A2E"/>
<path d="M97.4293 1.74249L99.0699 1.823L98.2608 18.3987L96.6202 18.3182L97.4293 1.74249Z" fill="#0A6847"/>
<path d="M98.1912 6.0199C96.5332 6.0199 95.1892 4.6723 95.1892 3.00995C95.1892 1.3476 96.5332 0 98.1912 0C99.8491 0 101.193 1.3476 101.193 3.00995C101.193 4.6723 99.8491 6.0199 98.1912 6.0199Z" fill="#292A2E"/>
<path d="M52.2991 22.3574L39.4882 17.6028L34.7045 1.88288C34.5202 1.27666 33.9602 0.860962 33.3283 0.860962C32.6963 0.860962 32.1363 1.27666 31.952 1.88288L27.1697 17.6028L14.3574 22.3574C13.7917 22.5681 13.4174 23.1065 13.4174 23.7113C13.4174 24.3146 13.7917 24.8559 14.3574 25.0652L27.1625 29.8182L31.9477 46.0174C32.1291 46.6294 32.6905 47.0494 33.3283 47.0494C33.9646 47.0494 34.5274 46.6294 34.7088 46.0159L39.494 29.8168L52.3005 25.0637C52.8634 24.8559 53.2391 24.316 53.2391 23.7113C53.2391 23.1079 52.8634 22.5681 52.2991 22.3574Z" fill="#F3CA52"/>
<path d="M23.5075 38.2361L20.1764 37.0006L18.8807 32.2374C18.7109 31.6081 18.1422 31.1722 17.493 31.1722C16.8437 31.1722 16.2751 31.6081 16.1038 32.236L14.8081 36.9991L11.4784 38.2347C10.9126 38.444 10.5383 38.9853 10.5383 39.5886C10.5383 40.1919 10.9126 40.7332 11.4784 40.9425L14.7909 42.1737L16.0966 47.4017C16.2578 48.0425 16.8322 48.4929 17.493 48.4929C18.1537 48.4929 18.7281 48.0425 18.8894 47.4002L20.1951 42.1723L23.5075 40.941C24.0733 40.7332 24.4476 40.1919 24.4476 39.5886C24.4476 38.9853 24.0733 38.444 23.5075 38.2361ZM17.2626 6.96799L13.8595 5.70503L12.5984 2.29141C12.3896 1.72416 11.8512 1.34888 11.2481 1.34888C10.6463 1.34888 10.1079 1.72416 9.89773 2.29141L8.63809 5.70503L5.23347 6.96799C4.66772 7.17873 4.29343 7.71855 4.29343 8.32189C4.29343 8.92523 4.66772 9.4665 5.23347 9.67579L8.63809 10.9388L9.89773 14.3524C10.1079 14.9196 10.6463 15.2949 11.2481 15.2949C11.8498 15.2949 12.3882 14.9196 12.5984 14.3524L13.858 10.9388L17.2626 9.67579C17.8284 9.46506 18.2027 8.92523 18.2027 8.32189C18.2027 7.71855 17.8284 7.17873 17.2626 6.96799Z" fill="#F8DF97"/>
</svg>
