<svg width="40" height="40" viewBox="0 0 40 40" fill="none" xmlns="http://www.w3.org/2000/svg">
<rect width="40" height="40" rx="20" fill="#FAFAFA"/>
<path d="M8.5 23.9129C8.5 26.3807 9.72757 28.2069 11.7731 29.4403C13.8403 30.6868 16.7405 31.3201 20.0001 31.3201C23.2596 31.3201 26.1598 30.6868 28.227 29.4403C30.2725 28.2069 31.5 26.3807 31.5 23.9129C31.5 21.403 30.2302 18.6672 28.1301 16.5503C26.0351 14.4384 23.1574 12.9873 20.0001 12.9873C16.8427 12.9873 13.965 14.4384 11.8699 16.5503C9.76983 18.6672 8.5 21.403 8.5 23.9129Z" stroke="#0A6847"/>
<path d="M20.2676 17.9344H13.4418C11.5784 17.9344 10.0678 19.445 10.0678 21.3084V21.3085C10.0678 23.1719 11.5784 24.6825 13.4418 24.6825H20.2676C22.131 24.6825 23.6415 23.1719 23.6415 21.3085V21.3084C23.6415 19.445 22.131 17.9344 20.2676 17.9344Z" fill="#0A6847" stroke="#0A6847"/>
<path d="M20.8718 22.276C20.8718 22.2763 20.8718 22.2766 20.8718 22.2769L20.8718 22.276Z" fill="#1E1E1E" stroke="#FAFAFA"/>
<path d="M10.637 22.2769C10.6346 21.9632 10.6942 21.6521 10.8126 21.3616C10.9309 21.0712 11.1056 20.807 11.3265 20.5843C11.5475 20.3616 11.8103 20.1849 12.0999 20.0643C12.3895 19.9437 12.7 19.8816 13.0137 19.8816C13.3274 19.8816 13.638 19.9437 13.9275 20.0643C14.2171 20.1849 14.4799 20.3616 14.7009 20.5843C14.9218 20.807 15.0965 21.0712 15.2149 21.3616L10.637 22.2769ZM10.637 22.2769C10.637 22.3346 10.6483 22.3918 10.6704 22.4452C10.6925 22.4985 10.7249 22.547 10.7658 22.5879C10.8066 22.6287 10.8551 22.6611 10.9084 22.6832C10.9618 22.7053 11.019 22.7166 11.0768 22.7166L10.637 22.2769ZM14.8904 22.2769L14.8904 22.276L14.8904 22.2769ZM11.0767 22.2768L11.0767 22.2769L11.0768 22.2767L11.0767 22.2768Z" fill="#1E1E1E" stroke="#FAFAFA"/>
<mask id="path-6-inside-1_220_36" fill="white">
<path d="M25.0349 8.98808L25.5132 9.22464L23.1294 14.0442L22.6512 13.8076L25.0349 8.98808Z"/>
</mask>
<path d="M25.0349 8.98808L25.5132 9.22464L23.1294 14.0442L22.6512 13.8076L25.0349 8.98808Z" fill="#0A6847"/>
<path d="M25.5132 9.22464L25.9566 8.32829L26.8529 8.77163L26.4096 9.66798L25.5132 9.22464ZM25.0349 8.98808L24.1386 8.54474L24.5819 7.64839L25.4783 8.09173L25.0349 8.98808ZM22.6512 13.8076L22.2078 14.704L21.3115 14.2606L21.7548 13.3643L22.6512 13.8076ZM23.1294 14.0442L24.0258 14.4875L23.5825 15.3839L22.6861 14.9405L23.1294 14.0442ZM25.0699 10.121L24.5916 9.88444L25.4783 8.09173L25.9566 8.32829L25.0699 10.121ZM25.9313 9.43143L23.5475 14.2509L21.7548 13.3643L24.1386 8.54474L25.9313 9.43143ZM23.0945 12.9113L23.5728 13.1478L22.6861 14.9405L22.2078 14.704L23.0945 12.9113ZM22.2331 13.6008L24.6169 8.7813L26.4096 9.66798L24.0258 14.4875L22.2331 13.6008Z" fill="#0A6847" mask="url(#path-6-inside-1_220_36)"/>
<mask id="path-8-inside-2_220_36" fill="white">
<path d="M14.1158 9.30207L14.5929 9.0632L17 13.8711L16.5229 14.11L14.1158 9.30207Z"/>
</mask>
<path d="M14.1158 9.30207L14.5929 9.0632L17 13.8711L16.5229 14.11L14.1158 9.30207Z" fill="#0A6847"/>
<path d="M14.5929 9.0632L14.1452 8.16901L15.0394 7.72133L15.4871 8.61552L14.5929 9.0632ZM14.1158 9.30207L13.2216 9.74976L12.7739 8.85557L13.6681 8.40788L14.1158 9.30207ZM16.5229 14.11L16.9706 15.0042L16.0764 15.4519L15.6287 14.5577L16.5229 14.11ZM17 13.8711L17.8942 13.4234L18.3419 14.3176L17.4477 14.7653L17 13.8711ZM15.0406 9.95739L14.5634 10.1963L13.6681 8.40788L14.1452 8.16901L15.0406 9.95739ZM15.01 8.85439L17.4171 13.6623L15.6287 14.5577L13.2216 9.74976L15.01 8.85439ZM16.0752 13.2158L16.5523 12.9769L17.4477 14.7653L16.9706 15.0042L16.0752 13.2158ZM16.1058 14.3188L13.6987 9.51089L15.4871 8.61552L17.8942 13.4234L16.1058 14.3188Z" fill="#0A6847" mask="url(#path-8-inside-2_220_36)"/>
<path d="M24.6619 9.27361C24.5572 9.51426 24.6674 9.79423 24.908 9.89895C25.1487 10.0037 25.4287 9.89346 25.5334 9.65281C25.6381 9.41216 25.5279 9.13219 25.2872 9.02748C25.0466 8.92276 24.7666 9.03296 24.6619 9.27361Z" fill="#F5D575" stroke="#0A6847"/>
<path d="M14.1186 9.77175C14.2475 10.0004 14.5372 10.0813 14.7659 9.9525C14.9945 9.82368 15.0755 9.53389 14.9466 9.30524C14.8178 9.07658 14.528 8.99566 14.2994 9.12448C14.0707 9.25331 13.9898 9.5431 14.1186 9.77175Z" fill="#F5D575" stroke="#0A6847"/>
</svg>
