<svg width="129" height="229" viewBox="0 0 129 229" fill="none" xmlns="http://www.w3.org/2000/svg">
<g clip-path="url(#clip0_313_9052)">
<path d="M86.4519 212.566L83.087 206.843C83.8108 205.078 85.4245 201.782 87.2146 202.245C88.0278 202.459 87.8724 203.307 87.3083 204.345C88.912 203.159 90.6522 202.379 91.8293 203.288C92.8984 204.117 91.8745 205.371 90.2256 206.592C91.5385 206.537 92.6546 206.825 93.1372 207.773C93.8289 209.128 91.8963 209.84 89.5121 210.211C90.2961 210.531 90.871 211.012 91.0246 211.718C91.3478 213.198 88.9287 213.063 86.4519 212.566Z" fill="#095E40"/>
<path d="M31.0977 80.1203L25.5985 73.1439C26.2378 70.6742 27.7795 66.0117 30.2371 66.3015C31.3532 66.4351 31.3016 67.5898 30.7417 69.068C32.6533 67.2056 34.8183 65.8549 36.5435 66.8471C38.1115 67.7512 36.9815 69.6001 35.0193 71.5156C36.7495 71.2048 38.2819 71.3848 39.0933 72.5544C40.2565 74.2258 37.8236 75.5187 34.7303 76.4428C35.8272 76.7279 36.6768 77.2582 37.0089 78.1666C37.7049 80.0704 34.4705 80.3302 31.0977 80.1203Z" fill="#095E40"/>
<path d="M120.131 229C119.953 229 119.781 228.933 119.65 228.813C119.519 228.692 119.438 228.527 119.422 228.35L106.83 85.6893C106.821 85.5953 106.83 85.5003 106.857 85.4098C106.884 85.3193 106.929 85.2351 106.989 85.1622C107.05 85.0892 107.124 85.029 107.207 84.9849C107.291 84.9409 107.383 84.9139 107.477 84.9056C107.571 84.8973 107.666 84.9078 107.756 84.9365C107.846 84.9652 107.929 85.0115 108.001 85.0728C108.073 85.134 108.132 85.209 108.175 85.2933C108.218 85.3776 108.243 85.4696 108.25 85.5639L120.842 228.225C120.858 228.413 120.799 228.6 120.678 228.745C120.557 228.89 120.383 228.98 120.195 228.997C120.173 228.999 120.152 229 120.131 229Z" fill="#B3D0C6"/>
<path d="M0.899963 9.09033L25.4941 66.0447L38.4861 96.1313L43.6385 96.6519L50.0789 127.319L56.9488 129.886L55.2314 143.268L63.8186 160.709L78.4171 175.971V194.863L96.0213 228.287H1.56068V61.8605L0.899963 9.09033Z" fill="#DAE8E3"/>
<path d="M38.4861 96.1313L11.8745 94.6709L13.5356 99.9812L16.1945 98.0436L38.4861 96.1313Z" fill="#E7F0ED"/>
<path d="M111.772 85.4264L99.8748 82.9675C97.1537 82.4291 94.7579 80.8319 93.2145 78.5272C91.671 76.2225 91.1062 73.399 91.6443 70.6779L95.4818 51.2818C96.0201 48.5607 97.6173 46.1649 99.922 44.6214C102.227 43.0779 105.05 42.5131 107.771 43.0514L119.669 45.5104C121.016 45.7767 122.298 46.3058 123.441 47.0676C124.584 47.8294 125.566 48.8088 126.33 49.95C127.095 51.0913 127.627 52.3719 127.896 53.7188C128.166 55.0657 128.167 56.4525 127.901 57.7999L124.063 77.196C123.796 78.5435 123.267 79.8252 122.505 80.9681C121.743 82.111 120.764 83.0926 119.622 83.8569C118.481 84.6212 117.2 85.1532 115.853 85.4225C114.506 85.6918 113.119 85.6931 111.772 85.4264Z" fill="#F3CA52"/>
<path d="M57.695 130.774L50.2169 130.485C50.4738 123.809 50.5807 123.135 50.6156 122.913L58.0076 124.082C58.0111 124.059 58.0158 124.03 58.0197 123.995C57.9591 124.547 57.8041 127.943 57.695 130.774Z" fill="#E98862"/>
<path d="M87.0417 175.034L79.5625 174.766C79.5625 174.766 79.8415 167.021 79.8686 166.335L87.3468 166.629C87.3208 167.311 87.0417 175.034 87.0417 175.034Z" fill="#E98862"/>
<path d="M111.014 99.2662C114.7 92.0675 114.033 84.6524 114.033 84.6524L87.0531 81.502L86.4829 82.2468C77.7282 80.9578 68.9304 79.9593 60.1009 79.3638C58.3923 79.2091 56.6906 79.7264 55.3572 80.8059C54.0237 81.8853 53.1634 83.4419 52.9588 85.1452L47.8412 127.855L60.9334 129.423L66.047 95.3607C74.533 96.7827 90.4918 99.3029 90.4918 99.3029C90.4918 99.3029 82.7296 115.353 78.4798 123.378C77.8766 124.384 77.5405 125.528 77.5034 126.7L76.0878 171.556L89.2577 172.204L92.124 129.287C98.1104 119.041 106.985 106.099 111.014 99.2662Z" fill="#3A3A3A"/>
<path d="M70.4604 177.937C70.2592 177.934 70.0608 177.889 69.8778 177.805C69.6948 177.721 69.531 177.601 69.3967 177.451C69.2623 177.301 69.1603 177.125 69.097 176.934C69.0337 176.743 69.0105 176.541 69.0288 176.34C69.0543 176.063 69.1585 175.798 69.3294 175.577C69.5002 175.357 69.7305 175.19 69.9932 175.096L78.7422 172.294C78.9116 172.241 79.0906 172.224 79.267 172.246C79.4433 172.268 79.6128 172.328 79.7639 172.422C80.9501 173.269 82.377 173.713 83.8344 173.688C84.9699 173.623 86.0642 173.24 86.9926 172.583C87.0743 172.518 87.173 172.478 87.2769 172.466C87.3809 172.455 87.486 172.473 87.5798 172.52C87.6737 172.566 87.7525 172.638 87.807 172.727C87.8616 172.816 87.8896 172.919 87.8878 173.024L87.8308 177.283C87.8291 177.408 87.8026 177.532 87.7528 177.648C87.7031 177.763 87.631 177.867 87.5409 177.955C87.4507 178.042 87.3441 178.111 87.2273 178.157C87.1105 178.204 86.9857 178.226 86.86 178.224L70.4604 177.937Z" fill="#B3D0C6"/>
<path d="M40.6183 132.803C40.4196 132.771 40.2298 132.698 40.0606 132.589C39.8914 132.48 39.7466 132.337 39.6351 132.17C39.5235 132.002 39.4478 131.813 39.4125 131.615C39.3773 131.417 39.3833 131.214 39.4301 131.018C39.495 130.747 39.636 130.5 39.8366 130.306C40.0371 130.112 40.2889 129.979 40.5623 129.924L49.6217 128.403C49.7972 128.374 49.9768 128.384 50.1483 128.431C50.3198 128.478 50.4791 128.561 50.6153 128.676C51.6687 129.684 53.0178 130.327 54.4641 130.511C55.5976 130.609 56.7356 130.386 57.7485 129.868C57.8387 129.815 57.9421 129.789 58.0466 129.793C58.1511 129.796 58.2524 129.83 58.3387 129.889C58.425 129.948 58.4926 130.031 58.5338 130.127C58.5749 130.223 58.5878 130.329 58.571 130.432L57.9039 134.638C57.8842 134.762 57.8403 134.881 57.7746 134.988C57.7088 135.095 57.6226 135.188 57.5208 135.262C57.419 135.335 57.3037 135.388 57.1814 135.417C57.0592 135.446 56.9324 135.451 56.8084 135.431L40.6183 132.803Z" fill="#B3D0C6"/>
<path d="M100.038 23.8008C100.038 23.8008 96.2038 33.0897 94.0998 37.8957C94 38.1235 93.9549 38.3714 93.9682 38.6197C93.9814 38.8679 94.0527 39.1096 94.1763 39.3254C94.2998 39.5412 94.4722 39.725 94.6796 39.8621C94.887 39.9992 95.1237 40.0858 95.3706 40.1149L104.783 41.2428C105.19 41.2913 105.599 41.1815 105.927 40.9359C106.255 40.6904 106.476 40.3282 106.544 39.9242L108.781 26.6226L100.038 23.8008Z" fill="#0F1011"/>
<path d="M111.014 45.637C110.452 44.3673 109.977 41.981 110.835 37.7515L105.306 36.0288C105.306 36.0288 105.147 42.7757 102.04 44.5604L111.014 45.637Z" fill="#E98862"/>
<path opacity="0.15" d="M103.358 43.3089L108.482 40.2741L104.797 39.7969C104.54 41.047 104.052 42.2381 103.358 43.3089Z" fill="black"/>
<path d="M114.386 35.2446C113.726 37.4588 112.237 39.453 110.156 39.9459C107.88 40.5503 105.49 40.5884 103.196 40.0567C97.0659 38.8137 99.9643 24.8859 103.228 22.5017C106.492 20.1176 114.91 22.8741 115.416 27.5708C115.676 29.9991 115.014 33.1377 114.386 35.2446Z" fill="#E98862"/>
<path d="M105.8 32.4527C106.085 32.4527 106.316 32.2215 106.316 31.9363C106.316 31.6511 106.085 31.4199 105.8 31.4199C105.515 31.4199 105.284 31.6511 105.284 31.9363C105.284 32.2215 105.515 32.4527 105.8 32.4527Z" fill="#0F1011"/>
<path d="M101.794 31.6402C102.079 31.6402 102.31 31.409 102.31 31.1238C102.31 30.8386 102.079 30.6074 101.794 30.6074C101.509 30.6074 101.278 30.8386 101.278 31.1238C101.278 31.409 101.509 31.6402 101.794 31.6402Z" fill="#0F1011"/>
<path d="M101.035 29.9254H101.038L102.399 30.0701C102.463 30.0768 102.527 30.0578 102.577 30.0173C102.627 29.9768 102.659 29.9181 102.666 29.8541C102.67 29.8223 102.668 29.7898 102.66 29.7588C102.651 29.7278 102.636 29.6989 102.616 29.6739C102.596 29.6488 102.571 29.6282 102.542 29.6133C102.514 29.5984 102.482 29.5895 102.45 29.5872L101.09 29.4429C101.027 29.4372 100.964 29.4565 100.915 29.4966C100.866 29.5366 100.834 29.5943 100.827 29.6573C100.82 29.7203 100.838 29.7836 100.877 29.8336C100.915 29.8836 100.972 29.9168 101.035 29.9254Z" fill="#0F1011"/>
<path d="M107.017 31.1391C107.076 31.146 107.136 31.1311 107.184 31.0971C107.233 31.0632 107.268 31.0125 107.282 30.9548C107.296 30.897 107.288 30.8362 107.26 30.7838C107.232 30.7314 107.186 30.6911 107.13 30.6705L105.829 30.189C105.799 30.1779 105.767 30.1728 105.736 30.174C105.704 30.1752 105.672 30.1826 105.643 30.1959C105.615 30.2092 105.588 30.2281 105.567 30.2514C105.545 30.2748 105.528 30.3022 105.517 30.3321C105.506 30.362 105.501 30.3937 105.502 30.4256C105.503 30.4574 105.511 30.4887 105.524 30.5177C105.537 30.5467 105.556 30.5728 105.58 30.5944C105.603 30.6161 105.63 30.633 105.66 30.6441L106.961 31.1256C106.979 31.1321 106.998 31.1367 107.017 31.1391Z" fill="#0F1011"/>
<path d="M105.083 35.9463C105.083 35.9463 103.166 35.921 101.894 35.2998C101.894 35.2998 101.756 36.5471 103.239 36.8486C104.723 37.1501 105.083 35.9463 105.083 35.9463Z" fill="white"/>
<g opacity="0.15">
<path d="M103.185 34.5101C103.228 34.5153 103.271 34.5051 103.306 34.4813C103.342 34.4575 103.367 34.4217 103.379 34.3805C103.39 34.3392 103.386 34.2953 103.368 34.2567C103.349 34.2181 103.318 34.1874 103.279 34.1702L102.274 33.7258L103.197 32.188C103.21 32.1679 103.219 32.1454 103.223 32.1218C103.227 32.0983 103.226 32.0741 103.221 32.0507C103.216 32.0274 103.205 32.0054 103.191 31.986C103.177 31.9666 103.159 31.9503 103.139 31.938C103.118 31.9257 103.096 31.9176 103.072 31.9143C103.048 31.911 103.024 31.9125 103.001 31.9188C102.978 31.925 102.956 31.9358 102.937 31.9506C102.918 31.9654 102.903 31.9838 102.891 32.0048L101.905 33.6474C101.887 33.6776 101.876 33.7115 101.872 33.7466C101.867 33.7816 101.871 33.8172 101.881 33.8509C101.892 33.8846 101.91 33.9157 101.933 33.942C101.957 33.9683 101.986 33.9894 102.018 34.0037L103.134 34.4977C103.151 34.5041 103.168 34.5083 103.185 34.5101Z" fill="black"/>
</g>
<path d="M99.5769 24.9144C99.5769 24.9144 101.361 17.6936 112.889 20.9009C115.763 21.7003 119.638 24.4832 119.413 32.0555C119.309 35.5287 120.105 38.9107 120.763 41.0717C120.841 41.3253 120.855 41.5943 120.802 41.8544C120.75 42.1145 120.634 42.3574 120.464 42.5612C120.294 42.7649 120.076 42.923 119.829 43.021C119.583 43.1191 119.316 43.154 119.052 43.1227L110.797 42.1366C110.59 42.1121 110.389 42.0471 110.207 41.9451C110.024 41.8431 109.864 41.7062 109.734 41.5421C109.605 41.3781 109.509 41.1902 109.452 40.9892C109.396 40.7881 109.379 40.5779 109.404 40.3704C109.406 40.3469 109.41 40.3237 109.413 40.2991C109.641 38.9014 109.973 36.528 110.328 32.8823C110.148 30.7558 111.466 29.4293 109.75 29.7077C103.374 30.7358 100.026 25.088 99.5769 24.9144Z" fill="#0F1011"/>
<path d="M108.126 34.4548C108.011 35.0238 108.126 35.6154 108.447 36.0994C108.767 36.5833 109.267 36.9201 109.836 37.0355C110.405 37.1509 110.997 37.0355 111.481 36.7147C111.965 36.394 112.302 35.8941 112.417 35.325C112.478 35.0489 112.484 34.7635 112.434 34.4851C112.385 34.2067 112.281 33.9407 112.129 33.7025C111.977 33.4642 111.779 33.2582 111.547 33.0964C111.315 32.9345 111.054 32.8199 110.778 32.7592C110.754 32.7538 110.73 32.7492 110.706 32.7445C109.164 32.5086 108.367 33.2695 108.126 34.4548Z" fill="#E98862"/>
<path d="M53.5643 45.6087C53.2706 45.81 53.8137 46.7612 54.2514 47.4319C52.5176 47.1511 49.5241 45.0862 47.8801 43.8681C47.7712 43.7878 47.6406 43.7422 47.5054 43.7373C47.3702 43.7323 47.2366 43.7682 47.1221 43.8404C47.0077 43.9125 46.9176 44.0174 46.8637 44.1415C46.8097 44.2656 46.7945 44.4031 46.8199 44.536C47.8259 49.7544 55.2146 52.0911 55.2146 52.0911L58.9491 49.79C58.9491 49.79 54.3373 45.0805 53.5643 45.6087Z" fill="#E98862"/>
<path d="M77.7443 62.9099C77.2618 62.9099 76.7836 62.82 76.3341 62.6448L53.7831 53.8602L56.6038 46.6197L77.3316 54.6941L93.7248 44.3799L97.863 50.9571L79.8148 62.313C79.1947 62.7033 78.4769 62.9102 77.7443 62.9099Z" fill="#095E40"/>
<path d="M84.7136 82.2933C85.5756 85.9354 114.201 92.5298 115.655 86.6574C116.581 82.9205 113.841 79.021 115.166 71.6516C116.491 64.2821 124.963 56.0905 120.432 49.5731C119.117 47.6822 116.536 46.1498 113.162 45.5396C112.556 47.4619 100.608 45.3212 100.863 43.3757C100.406 43.3005 100.051 43.2439 99.8278 43.215C88.0995 41.6242 90.8325 55.7879 89.1953 65.538C87.2852 76.948 83.8237 78.5413 84.7136 82.2933Z" fill="#095E40"/>
<path d="M100.863 43.376C100.607 45.3214 101.146 48.3474 104.345 49.1435C108.608 50.2034 112.555 47.4622 113.162 45.5399H113.151C108.904 44.7744 103.347 43.7826 100.863 43.376Z" fill="#E98862"/>
<path d="M85.5265 78.3721C85.3841 78.3723 85.245 78.3295 85.1273 78.2495L70.3766 68.2579L53.302 48.3009L4.14691 2.1226C4.01055 1.99282 3.93107 1.81437 3.92582 1.6262C3.92056 1.43803 3.98996 1.25542 4.11886 1.11824C4.24776 0.981054 4.4257 0.900433 4.61383 0.893975C4.80197 0.887516 4.98501 0.955745 5.12302 1.08377L54.3348 47.3148L54.3597 47.3444L71.3353 67.1855L85.9267 77.0692C86.053 77.1548 86.1485 77.2786 86.1992 77.4225C86.25 77.5664 86.2531 77.7228 86.2083 77.8687C86.1635 78.0145 86.0731 78.1422 85.9504 78.2328C85.8276 78.3234 85.679 78.3723 85.5265 78.3721Z" fill="#B3D0C6"/>
<path d="M53.6077 47.6193L46.8117 41.4148C46.4454 41.0808 45.9614 40.906 45.4662 40.9287C44.9711 40.9514 44.5052 41.1699 44.171 41.536L43.6792 42.0776C43.5139 42.2587 43.3859 42.4706 43.3025 42.7011C43.2191 42.9317 43.182 43.1764 43.1933 43.4213C43.2045 43.6663 43.2639 43.9065 43.3681 44.1285C43.4722 44.3504 43.6191 44.5497 43.8003 44.7148L49.4952 49.9143C49.6762 50.0803 49.8881 50.2089 50.1188 50.2929C50.3496 50.3768 50.5946 50.4144 50.84 50.4034C51.0853 50.3925 51.326 50.3333 51.5484 50.2292C51.7708 50.1251 51.9704 49.9781 52.1359 49.7967L53.6327 48.1574C53.6996 48.0822 53.7344 47.9838 53.7298 47.8833C53.7251 47.7827 53.6813 47.688 53.6077 47.6193ZM50.1402 46.9956L49.6591 47.523C49.5999 47.5885 49.5284 47.6416 49.4485 47.6792C49.3687 47.7168 49.2822 47.7382 49.1941 47.7422C49.1059 47.7462 49.0178 47.7327 48.9349 47.7024C48.8521 47.6721 48.776 47.6257 48.7112 47.5658L44.7269 43.9308C44.5954 43.8101 44.5171 43.6422 44.5091 43.4639C44.501 43.2855 44.564 43.1113 44.6841 42.9793L45.1652 42.4554C45.2244 42.3899 45.296 42.3369 45.3758 42.2992C45.4556 42.2616 45.5421 42.2402 45.6303 42.2362C45.7184 42.2323 45.8065 42.2458 45.8894 42.2761C45.9723 42.3064 46.0484 42.3528 46.1132 42.4126L50.0975 46.0477C50.1625 46.1071 50.2152 46.1788 50.2526 46.2586C50.2899 46.3384 50.3112 46.4248 50.3151 46.5128C50.319 46.6009 50.3056 46.6888 50.2755 46.7717C50.2455 46.8545 50.1997 46.9306 50.1402 46.9956Z" fill="#B3D0C6"/>
<path d="M70.7783 68.3635L65.1668 61.0703C64.8642 60.6777 64.4181 60.4213 63.9265 60.3574C63.435 60.2935 62.9382 60.4274 62.5453 60.7296L61.9665 61.1775C61.7722 61.3271 61.6093 61.5134 61.4871 61.7259C61.3648 61.9384 61.2856 62.1729 61.2541 62.4161C61.2225 62.6592 61.2391 62.9061 61.3031 63.1428C61.367 63.3795 61.4769 63.6013 61.6266 63.7955L66.3289 69.9073C66.4782 70.1022 66.6645 70.2658 66.8771 70.3887C67.0897 70.5115 67.3244 70.5912 67.5679 70.6232C67.8113 70.6552 68.0587 70.6388 68.2958 70.575C68.5329 70.5113 68.7551 70.4013 68.9497 70.2515L70.7091 68.8973C70.7881 68.835 70.8395 68.7442 70.8524 68.6445C70.8653 68.5447 70.8387 68.4439 70.7783 68.3635ZM67.4725 67.1454L66.907 67.5812C66.8373 67.6354 66.7575 67.6752 66.6723 67.6983C66.5872 67.7215 66.4982 67.7275 66.4107 67.7161C66.3232 67.7046 66.2388 67.676 66.1624 67.6317C66.0861 67.5875 66.0192 67.5285 65.9658 67.4583L62.6757 63.1843C62.5672 63.0425 62.5193 62.8636 62.5424 62.6865C62.5656 62.5095 62.658 62.3489 62.7994 62.2399L63.3642 61.808C63.4339 61.7538 63.5136 61.714 63.5988 61.6909C63.6839 61.6678 63.7728 61.6617 63.8603 61.6732C63.9478 61.6846 64.0322 61.7133 64.1085 61.7575C64.1848 61.8018 64.2517 61.8607 64.3051 61.9309L67.5955 66.2042C67.6492 66.2741 67.6887 66.3538 67.7116 66.439C67.7345 66.5241 67.7404 66.6129 67.729 66.7003C67.7176 66.7877 67.689 66.872 67.645 66.9483C67.601 67.0247 67.5424 67.0917 67.4725 67.1454Z" fill="#B3D0C6"/>
<path d="M89.5702 63.2422C89.3914 63.2421 89.2191 63.1747 89.0876 63.0535C88.9562 62.9322 88.875 62.766 88.8604 62.5877C88.8458 62.4095 88.8987 62.2322 89.0087 62.0912C89.1187 61.9502 89.2776 61.8556 89.4541 61.8263C89.5652 61.8056 97.0231 60.2565 99.1204 43.1281C99.1434 42.9404 99.24 42.7696 99.389 42.6531C99.5379 42.5367 99.7271 42.4842 99.9147 42.5073C100.102 42.5303 100.273 42.6269 100.39 42.7759C100.506 42.9248 100.559 43.114 100.536 43.3016C98.2872 61.6645 90.0325 63.1777 89.6825 63.2333C89.6454 63.2392 89.6078 63.2422 89.5702 63.2422Z" fill="#F3CA52"/>
<path d="M115.433 71.1995C115.282 71.1995 115.135 71.1516 115.014 71.0626C111.461 68.4696 109.446 65.2402 109.026 61.4637C108.139 53.4937 114.622 45.9749 114.898 45.6585C115.023 45.5172 115.198 45.4311 115.386 45.419C115.574 45.4068 115.76 45.4696 115.901 45.5935C116.043 45.7175 116.13 45.8926 116.143 46.0805C116.157 46.2684 116.095 46.4539 115.972 46.5964C115.908 46.6695 109.622 53.9698 110.444 61.3118C110.82 64.6717 112.64 67.5652 115.855 69.9112C115.976 69.9999 116.067 70.1247 116.113 70.2679C116.159 70.411 116.159 70.5651 116.112 70.7081C116.065 70.851 115.975 70.9755 115.853 71.0638C115.731 71.1521 115.584 71.1996 115.434 71.1995H115.433Z" fill="#F3CA52"/>
<path d="M71.3196 64.1334C71.0701 64.3864 71.7828 65.2186 72.3377 65.7945C70.5811 65.8454 67.2505 64.38 65.4077 63.4944C65.2844 63.4361 65.1464 63.4165 65.0118 63.4384C64.8772 63.4602 64.7525 63.5224 64.654 63.6167C64.5555 63.711 64.488 63.8329 64.4604 63.9665C64.4328 64.1 64.4463 64.2387 64.4993 64.3643C66.4782 69.288 74.1609 70.19 74.1609 70.19L77.3954 67.2271C77.3954 67.2271 71.9789 63.4695 71.3196 64.1334Z" fill="#E98862"/>
<path d="M100.421 73.2619C100.347 73.2619 100.272 73.2597 100.197 73.2554L73.7853 71.7266L74.234 63.9683L98.903 65.397L113.412 50.8306L118.917 56.3141L103.176 72.1182C102.814 72.4809 102.385 72.7686 101.913 72.9649C101.44 73.1611 100.933 73.262 100.421 73.2619Z" fill="#095E40"/>
<path d="M111.706 84.8429C102.482 84.8429 87.0739 79.6933 85.0668 79.0087C84.8876 78.9499 84.722 78.856 84.5794 78.7327C84.4368 78.6094 84.32 78.459 84.236 78.2902C84.1519 78.1214 84.1021 77.9377 84.0895 77.7495C84.077 77.5614 84.1018 77.3727 84.1627 77.1942C84.2236 77.0158 84.3193 76.8512 84.4442 76.71C84.5691 76.5687 84.7208 76.4537 84.8905 76.3715C85.0602 76.2894 85.2445 76.2417 85.4328 76.2312C85.6211 76.2207 85.8095 76.2477 85.9873 76.3106C92.1572 78.4132 109.401 83.4645 115.024 81.5974C115.202 81.5375 115.39 81.5134 115.577 81.5263C115.764 81.5392 115.947 81.589 116.115 81.6728C116.283 81.7565 116.433 81.8726 116.556 82.0144C116.679 82.1562 116.772 82.3209 116.832 82.499C116.891 82.6771 116.914 82.8652 116.901 83.0524C116.887 83.2395 116.836 83.4222 116.752 83.5898C116.667 83.7574 116.551 83.9067 116.408 84.0291C116.266 84.1515 116.101 84.2446 115.923 84.303C114.554 84.7005 113.131 84.8827 111.706 84.8429Z" fill="#B3D0C6"/>
</g>
<defs>
<clipPath id="clip0_313_9052">
<rect width="127.2" height="228.11" fill="white" transform="translate(0.899963 0.890137)"/>
</clipPath>
</defs>
</svg>
