<svg width="276" height="230" viewBox="0 0 276 230" fill="none" xmlns="http://www.w3.org/2000/svg">
<g clip-path="url(#clip0_313_5351)">
<path d="M234.239 139.279C235.597 135.313 234.601 131.381 232.015 130.495C229.429 129.609 226.231 132.106 224.873 136.072C223.515 140.038 224.511 143.971 227.097 144.856C229.683 145.742 232.881 143.245 234.239 139.279Z" fill="#F4F4F4"/>
<path d="M225.029 136.062C226.871 135.232 227.335 132.277 226.066 129.462C224.797 126.647 222.276 125.038 220.434 125.868C218.592 126.698 218.128 129.654 219.397 132.469C220.666 135.284 223.187 136.893 225.029 136.062Z" fill="#F4F4F4"/>
<path d="M221.546 142.603H231.398C232.264 142.603 233.096 142.947 233.708 143.56C234.321 144.173 234.665 145.004 234.665 145.87V150.353C234.665 151.219 234.321 152.05 233.708 152.663C233.096 153.276 232.264 153.62 231.398 153.62H221.546V142.603Z" fill="#F4F4F4"/>
<g opacity="0.05">
<path d="M221.546 142.603H231.398C232.264 142.603 233.096 142.947 233.708 143.56C234.321 144.173 234.665 145.004 234.665 145.87V150.353C234.665 151.219 234.321 152.05 233.708 152.663C233.096 153.276 232.264 153.62 231.398 153.62H221.546V142.603Z" fill="#292A2E"/>
</g>
<g opacity="0.05">
<path d="M233.407 134.997H233.394C233.375 134.995 233.356 134.988 233.339 134.977C233.322 134.966 233.309 134.951 233.299 134.933C233.263 134.845 233.261 134.747 233.293 134.657C233.349 134.419 233.335 134.169 233.252 133.939C233.241 133.909 233.242 133.875 233.255 133.846C233.268 133.817 233.293 133.794 233.323 133.783C233.353 133.771 233.387 133.772 233.416 133.786C233.445 133.799 233.468 133.824 233.479 133.854C233.559 134.073 233.587 134.309 233.559 134.541C233.7 134.412 233.858 134.304 234.028 134.217C234.042 134.21 234.058 134.206 234.074 134.204C234.09 134.203 234.106 134.205 234.121 134.21C234.136 134.215 234.15 134.223 234.162 134.234C234.174 134.244 234.184 134.257 234.191 134.271C234.198 134.285 234.203 134.301 234.204 134.317C234.205 134.333 234.203 134.349 234.198 134.364C234.193 134.379 234.185 134.393 234.175 134.405C234.164 134.417 234.151 134.427 234.137 134.434C233.891 134.562 233.675 134.738 233.5 134.954C233.489 134.967 233.475 134.978 233.458 134.986C233.442 134.993 233.425 134.997 233.407 134.997Z" fill="#292A2E"/>
<path d="M229.722 132.104C229.706 132.104 229.691 132.101 229.676 132.095C229.592 132.05 229.528 131.975 229.497 131.885C229.394 131.667 229.228 131.484 229.02 131.361C228.992 131.344 228.971 131.318 228.963 131.287C228.955 131.256 228.959 131.222 228.975 131.195C228.991 131.167 229.018 131.146 229.049 131.138C229.08 131.129 229.113 131.134 229.141 131.15C229.339 131.266 229.507 131.429 229.629 131.623C229.658 131.432 229.712 131.245 229.788 131.068C229.801 131.038 229.825 131.015 229.855 131.003C229.885 130.991 229.919 130.992 229.948 131.005C229.978 131.018 230.001 131.042 230.013 131.072C230.024 131.102 230.024 131.135 230.011 131.165C229.901 131.424 229.844 131.702 229.844 131.984C229.844 132.016 229.831 132.046 229.808 132.069C229.785 132.091 229.754 132.104 229.722 132.104Z" fill="#292A2E"/>
<path d="M226.616 136.023C226.6 136.023 226.584 136.02 226.57 136.014C226.486 135.97 226.422 135.896 226.391 135.807C226.288 135.587 226.121 135.404 225.913 135.28C225.885 135.264 225.865 135.237 225.856 135.206C225.848 135.175 225.852 135.142 225.868 135.114C225.884 135.086 225.911 135.066 225.942 135.057C225.973 135.049 226.006 135.053 226.034 135.069C226.232 135.186 226.4 135.349 226.523 135.543C226.551 135.352 226.605 135.165 226.681 134.987C226.688 134.972 226.697 134.959 226.709 134.948C226.72 134.937 226.734 134.928 226.748 134.922C226.763 134.917 226.779 134.914 226.795 134.914C226.811 134.914 226.827 134.918 226.842 134.924C226.856 134.931 226.869 134.94 226.88 134.951C226.891 134.963 226.9 134.977 226.906 134.991C226.912 135.006 226.915 135.022 226.914 135.038C226.914 135.054 226.911 135.07 226.904 135.084C226.794 135.343 226.737 135.622 226.737 135.903C226.737 135.935 226.724 135.966 226.701 135.988C226.678 136.011 226.648 136.023 226.616 136.023Z" fill="#292A2E"/>
<path d="M229.914 135.431C229.898 135.431 229.882 135.428 229.867 135.422C229.783 135.378 229.719 135.303 229.688 135.213C229.585 134.994 229.419 134.811 229.211 134.688C229.184 134.671 229.165 134.644 229.158 134.614C229.15 134.583 229.155 134.551 229.171 134.524C229.186 134.497 229.212 134.477 229.242 134.468C229.272 134.459 229.305 134.462 229.332 134.477C229.53 134.594 229.698 134.756 229.821 134.951C229.849 134.759 229.903 134.572 229.979 134.395C229.992 134.365 230.016 134.342 230.046 134.33C230.076 134.318 230.11 134.319 230.139 134.332C230.169 134.345 230.192 134.369 230.204 134.399C230.216 134.429 230.215 134.462 230.202 134.492C230.092 134.751 230.035 135.029 230.035 135.31C230.035 135.342 230.022 135.373 229.999 135.396C229.976 135.418 229.946 135.431 229.914 135.431Z" fill="#292A2E"/>
<path d="M232.011 138.858C231.992 138.858 231.973 138.853 231.956 138.845C231.938 138.836 231.923 138.822 231.912 138.806C231.9 138.79 231.893 138.771 231.891 138.751C231.888 138.656 231.921 138.564 231.983 138.492C232.121 138.291 232.197 138.053 232.202 137.809C232.202 137.793 232.205 137.777 232.211 137.763C232.217 137.748 232.226 137.735 232.237 137.724C232.249 137.712 232.262 137.704 232.277 137.697C232.291 137.691 232.307 137.688 232.323 137.688C232.339 137.689 232.355 137.692 232.37 137.698C232.384 137.704 232.398 137.713 232.409 137.725C232.42 137.736 232.429 137.749 232.435 137.764C232.441 137.779 232.444 137.795 232.444 137.811C232.44 138.046 232.38 138.276 232.271 138.484C232.449 138.417 232.636 138.374 232.826 138.358C232.858 138.355 232.89 138.365 232.914 138.386C232.939 138.407 232.954 138.436 232.957 138.469C232.959 138.484 232.957 138.5 232.952 138.516C232.947 138.531 232.939 138.545 232.929 138.557C232.919 138.569 232.906 138.579 232.892 138.587C232.878 138.594 232.862 138.598 232.846 138.6C232.573 138.626 232.308 138.709 232.069 138.843C232.051 138.853 232.031 138.858 232.011 138.858Z" fill="#292A2E"/>
<path d="M226.894 140.969C226.877 140.969 226.86 140.965 226.844 140.958C226.761 140.911 226.7 140.834 226.671 140.743C226.575 140.521 226.414 140.333 226.211 140.202C226.196 140.194 226.184 140.183 226.174 140.17C226.164 140.157 226.157 140.142 226.152 140.127C226.148 140.111 226.147 140.094 226.15 140.078C226.152 140.062 226.158 140.046 226.167 140.032C226.175 140.018 226.187 140.006 226.2 139.997C226.213 139.987 226.229 139.981 226.245 139.977C226.261 139.974 226.277 139.973 226.293 139.977C226.309 139.98 226.325 139.986 226.338 139.995C226.533 140.118 226.695 140.286 226.812 140.484C226.846 140.294 226.905 140.109 226.987 139.933C227.002 139.906 227.027 139.885 227.057 139.875C227.087 139.865 227.119 139.867 227.147 139.881C227.176 139.894 227.198 139.918 227.209 139.947C227.22 139.977 227.219 140.009 227.207 140.038C227.089 140.293 227.024 140.57 227.015 140.851C227.014 140.882 227.001 140.912 226.978 140.933C226.956 140.955 226.925 140.967 226.894 140.967V140.969Z" fill="#292A2E"/>
<path d="M229.939 142.097C229.934 142.097 229.93 142.097 229.926 142.097C229.906 142.095 229.887 142.088 229.87 142.077C229.854 142.066 229.84 142.051 229.831 142.033C229.795 141.945 229.792 141.847 229.824 141.758C229.881 141.519 229.867 141.269 229.784 141.039C229.772 141.009 229.773 140.975 229.787 140.946C229.8 140.916 229.824 140.894 229.855 140.882C229.885 140.871 229.918 140.872 229.948 140.885C229.977 140.899 230 140.923 230.011 140.953C230.091 141.173 230.119 141.408 230.091 141.641C230.232 141.512 230.39 141.403 230.56 141.317C230.574 141.309 230.59 141.304 230.606 141.302C230.623 141.301 230.639 141.302 230.655 141.307C230.67 141.312 230.685 141.32 230.697 141.33C230.71 141.341 230.72 141.354 230.727 141.368C230.735 141.383 230.739 141.399 230.74 141.415C230.741 141.432 230.739 141.448 230.733 141.463C230.728 141.479 230.72 141.493 230.708 141.505C230.697 141.517 230.684 141.527 230.669 141.534C230.424 141.661 230.207 141.838 230.032 142.053C230.021 142.067 230.007 142.078 229.99 142.086C229.974 142.093 229.956 142.097 229.939 142.097Z" fill="#292A2E"/>
</g>
<g opacity="0.05">
<path d="M224.48 130.5H224.468C224.448 130.498 224.429 130.491 224.412 130.48C224.396 130.469 224.382 130.454 224.373 130.436C224.336 130.348 224.334 130.25 224.366 130.16C224.422 129.922 224.408 129.672 224.325 129.442C224.314 129.412 224.315 129.378 224.328 129.349C224.342 129.32 224.366 129.297 224.396 129.286C224.426 129.274 224.46 129.275 224.489 129.289C224.518 129.302 224.541 129.327 224.553 129.357C224.633 129.576 224.66 129.812 224.633 130.044C224.774 129.915 224.931 129.806 225.101 129.72C225.115 129.712 225.131 129.707 225.147 129.705C225.164 129.704 225.18 129.705 225.196 129.71C225.211 129.715 225.226 129.723 225.238 129.733C225.251 129.744 225.261 129.757 225.269 129.771C225.276 129.786 225.28 129.802 225.281 129.818C225.282 129.835 225.28 129.851 225.275 129.867C225.269 129.882 225.261 129.896 225.25 129.908C225.239 129.92 225.225 129.93 225.21 129.937C224.965 130.064 224.748 130.241 224.574 130.456C224.562 130.47 224.548 130.481 224.532 130.489C224.516 130.496 224.498 130.5 224.48 130.5Z" fill="#292A2E"/>
<path d="M221.926 127.78C221.91 127.78 221.894 127.777 221.879 127.771C221.795 127.726 221.731 127.652 221.7 127.562C221.597 127.343 221.431 127.16 221.223 127.036C221.196 127.019 221.177 126.993 221.17 126.962C221.162 126.932 221.167 126.9 221.183 126.873C221.198 126.845 221.224 126.825 221.254 126.817C221.284 126.808 221.316 126.811 221.344 126.825C221.542 126.942 221.71 127.105 221.832 127.299C221.861 127.108 221.914 126.921 221.991 126.743C221.997 126.728 222.007 126.715 222.018 126.704C222.03 126.692 222.043 126.684 222.058 126.678C222.073 126.672 222.089 126.669 222.105 126.669C222.121 126.669 222.137 126.673 222.152 126.679C222.167 126.686 222.18 126.695 222.191 126.707C222.202 126.718 222.211 126.732 222.217 126.747C222.222 126.762 222.225 126.778 222.225 126.794C222.224 126.81 222.22 126.826 222.214 126.841C222.104 127.1 222.047 127.378 222.047 127.659C222.047 127.691 222.034 127.722 222.011 127.744C221.988 127.767 221.958 127.78 221.926 127.78Z" fill="#292A2E"/>
<path d="M221.516 130.674C221.5 130.674 221.484 130.671 221.469 130.665C221.385 130.62 221.321 130.545 221.29 130.455C221.187 130.237 221.021 130.054 220.813 129.931C220.799 129.923 220.787 129.912 220.777 129.9C220.768 129.887 220.761 129.873 220.756 129.857C220.748 129.826 220.752 129.793 220.768 129.765C220.784 129.737 220.811 129.716 220.842 129.708C220.873 129.7 220.906 129.704 220.934 129.72C221.133 129.837 221.3 129.999 221.423 130.194C221.452 130.002 221.505 129.816 221.582 129.638C221.594 129.608 221.619 129.585 221.649 129.573C221.679 129.562 221.712 129.562 221.742 129.575C221.771 129.588 221.794 129.612 221.806 129.642C221.818 129.672 221.817 129.706 221.804 129.735C221.694 129.994 221.638 130.273 221.637 130.554C221.637 130.586 221.624 130.617 221.601 130.639C221.578 130.662 221.548 130.674 221.516 130.674Z" fill="#292A2E"/>
<path d="M223.613 134.1C223.583 134.1 223.555 134.089 223.532 134.07C223.51 134.05 223.496 134.022 223.492 133.993C223.49 133.898 223.523 133.806 223.585 133.734C223.723 133.533 223.799 133.296 223.804 133.051C223.804 133.019 223.817 132.989 223.84 132.966C223.863 132.944 223.893 132.931 223.925 132.931C223.941 132.931 223.957 132.935 223.972 132.941C223.987 132.947 224 132.956 224.011 132.967C224.022 132.979 224.031 132.992 224.037 133.007C224.043 133.022 224.046 133.038 224.046 133.054C224.042 133.289 223.982 133.519 223.872 133.727C224.051 133.659 224.238 133.617 224.428 133.6C224.46 133.598 224.491 133.609 224.516 133.63C224.54 133.65 224.556 133.679 224.559 133.711C224.56 133.727 224.558 133.743 224.554 133.758C224.549 133.774 224.541 133.788 224.531 133.8C224.52 133.812 224.508 133.822 224.494 133.829C224.479 133.837 224.464 133.841 224.448 133.842C224.175 133.868 223.91 133.952 223.671 134.086C223.653 134.096 223.633 134.101 223.613 134.1Z" fill="#292A2E"/>
<path d="M221.071 133.346C220.986 133.338 220.905 133.302 220.841 133.244C220.651 133.099 220.421 133.015 220.183 133.004C220.167 133.004 220.151 133 220.136 132.993C220.122 132.987 220.109 132.978 220.098 132.966C220.087 132.954 220.078 132.941 220.072 132.926C220.067 132.911 220.064 132.895 220.065 132.879C220.065 132.863 220.068 132.847 220.075 132.832C220.081 132.818 220.091 132.804 220.102 132.793C220.114 132.782 220.128 132.774 220.143 132.768C220.158 132.763 220.174 132.76 220.19 132.761C220.419 132.771 220.642 132.836 220.84 132.951C220.778 132.766 220.741 132.573 220.729 132.378C220.727 132.346 220.738 132.314 220.759 132.29C220.78 132.266 220.81 132.252 220.842 132.25C220.859 132.248 220.875 132.25 220.89 132.254C220.906 132.259 220.92 132.267 220.932 132.278C220.944 132.289 220.953 132.302 220.96 132.317C220.967 132.331 220.97 132.347 220.971 132.363C220.99 132.644 221.065 132.917 221.192 133.168C221.2 133.186 221.205 133.205 221.204 133.225C221.204 133.245 221.199 133.264 221.189 133.281C221.18 133.298 221.166 133.313 221.15 133.324C221.134 133.335 221.115 133.341 221.095 133.343C221.087 133.344 221.079 133.345 221.071 133.346Z" fill="#292A2E"/>
</g>
<path d="M211.04 146.772H188.19V153.421H211.04V146.772Z" fill="#F4F4F4"/>
<path opacity="0.05" d="M207.972 146.772H204.978V153.421H207.972V146.772Z" fill="#292A2E"/>
<path d="M203.559 148.218H191.109V152.158H203.559V148.218Z" fill="white"/>
<path d="M191.196 138.367L169.963 147.64L172.625 153.733L193.857 144.46L191.196 138.367Z" fill="#F4F4F4"/>
<path opacity="0.05" d="M191.196 138.367L169.963 147.64L172.625 153.733L193.857 144.46L191.196 138.367Z" fill="#292A2E"/>
<path d="M175.597 145.18L172.815 146.395L175.476 152.488L178.258 151.273L175.597 145.18Z" fill="white"/>
<path d="M189.06 140.876L177.493 145.928L179.07 149.539L190.637 144.486L189.06 140.876Z" fill="white"/>
<path opacity="0.05" d="M175.666 211.943H169.923V215.778H175.666V211.943Z" fill="#292A2E"/>
<path opacity="0.05" d="M259.978 211.943H254.236V215.778H259.978V211.943Z" fill="#292A2E"/>
<path d="M265.242 153.514H164.659V211.943H265.242V153.514Z" fill="#F4F4F4"/>
<path opacity="0.03" d="M265.242 153.514H164.659V211.943H265.242V153.514Z" fill="#292A2E"/>
<path d="M251.347 153.514H150.764V211.943H251.347V153.514Z" fill="#F4F4F4"/>
<path opacity="0.05" d="M161.771 211.943H156.028V215.778H161.771V211.943Z" fill="#292A2E"/>
<path opacity="0.05" d="M246.083 211.943H240.341V215.778H246.083V211.943Z" fill="#292A2E"/>
<path opacity="0.7" d="M248.532 157.126H153.579V171.945H248.532V157.126Z" fill="white"/>
<path opacity="0.7" d="M248.532 175.573H153.579V190.393H248.532V175.573Z" fill="white"/>
<path opacity="0.7" d="M248.532 194.019H153.579V208.839H248.532V194.019Z" fill="white"/>
<path opacity="0.05" d="M170.373 166.609C171.518 166.609 172.447 165.681 172.447 164.536C172.447 163.391 171.518 162.462 170.373 162.462C169.228 162.462 168.3 163.391 168.3 164.536C168.3 165.681 169.228 166.609 170.373 166.609Z" fill="#292A2E"/>
<path opacity="0.05" d="M231.738 166.609C232.883 166.609 233.812 165.681 233.812 164.536C233.812 163.391 232.883 162.462 231.738 162.462C230.593 162.462 229.665 163.391 229.665 164.536C229.665 165.681 230.593 166.609 231.738 166.609Z" fill="#292A2E"/>
<path opacity="0.05" d="M170.373 185.056C171.518 185.056 172.447 184.128 172.447 182.983C172.447 181.838 171.518 180.909 170.373 180.909C169.228 180.909 168.3 181.838 168.3 182.983C168.3 184.128 169.228 185.056 170.373 185.056Z" fill="#292A2E"/>
<path opacity="0.05" d="M231.738 185.056C232.883 185.056 233.812 184.128 233.812 182.983C233.812 181.838 232.883 180.909 231.738 180.909C230.593 180.909 229.665 181.838 229.665 182.983C229.665 184.128 230.593 185.056 231.738 185.056Z" fill="#292A2E"/>
<path opacity="0.05" d="M170.373 203.503C171.518 203.503 172.447 202.575 172.447 201.429C172.447 200.284 171.518 199.356 170.373 199.356C169.228 199.356 168.3 200.284 168.3 201.429C168.3 202.575 169.228 203.503 170.373 203.503Z" fill="#292A2E"/>
<path opacity="0.05" d="M231.738 203.503C232.883 203.503 233.812 202.575 233.812 201.429C233.812 200.284 232.883 199.356 231.738 199.356C230.593 199.356 229.665 200.284 229.665 201.429C229.665 202.575 230.593 203.503 231.738 203.503Z" fill="#292A2E"/>
<path d="M236.728 13.8828H192.392V71.5918H236.728V13.8828Z" fill="#F4F4F4"/>
<path d="M236.728 71.5918H238.166V13.8828H236.728V71.5918Z" fill="#F4F4F4"/>
<path opacity="0.05" d="M236.728 71.5918H238.166V13.8828H236.728V71.5918Z" fill="#292A2E"/>
<path opacity="0.05" d="M228.651 24.3955H200.468V61.0798H228.651V24.3955Z" fill="#292A2E"/>
<path opacity="0.03" d="M228.651 24.3955H227.183V61.0798H228.651V24.3955Z" fill="#292A2E"/>
<path d="M272.988 85.7832H236.728V122.376H272.988V85.7832Z" fill="#F4F4F4"/>
<path opacity="0.05" d="M266.382 92.4487H243.333V115.71H266.382V92.4487Z" fill="#292A2E"/>
<path d="M272.988 122.376H274.426V85.7831H272.988V122.376Z" fill="#F4F4F4"/>
<path opacity="0.05" d="M272.988 122.376H274.426V85.7831H272.988V122.376Z" fill="#292A2E"/>
<path opacity="0.03" d="M266.382 92.4487H264.914V115.71H266.382V92.4487Z" fill="#292A2E"/>
<path d="M97.0531 25.7725H4.53027V118.295H97.0531V25.7725Z" fill="#F4F4F4"/>
<path d="M98.1138 25.7725H97.0533V118.295H98.1138V25.7725Z" fill="#F4F4F4"/>
<path opacity="0.05" d="M98.1138 25.7725H97.0533V118.295H98.1138V25.7725Z" fill="#292A2E"/>
<path opacity="0.05" d="M74.6392 89.5282V65.3213H54.8102V79.3849H24.0948V104.287H11.0402V118.295H24.0948H26.6095H92.6024V89.5282H74.6392Z" fill="#292A2E"/>
<path opacity="0.34" d="M71.795 67.9497H57.3554V70.578H71.795V67.9497Z" fill="#FFFFFA"/>
<path opacity="0.34" d="M71.795 73.3965H57.3554V76.0248H71.795V73.3965Z" fill="#FFFFFA"/>
<path opacity="0.34" d="M71.795 78.8428H57.3554V81.471H71.795V78.8428Z" fill="#FFFFFA"/>
<path opacity="0.34" d="M90.0421 92.0796H87.3806V94.7079H90.0421V92.0796Z" fill="#FFFFFA"/>
<path opacity="0.34" d="M90.0421 97.5259H87.3806V100.154H90.0421V97.5259Z" fill="#FFFFFA"/>
<path opacity="0.34" d="M90.0421 102.973H87.3806V105.601H90.0421V102.973Z" fill="#FFFFFA"/>
<path opacity="0.34" d="M85.1184 92.0796H82.4569V94.7079H85.1184V92.0796Z" fill="#FFFFFA"/>
<path opacity="0.34" d="M85.1184 97.5259H82.4569V100.154H85.1184V97.5259Z" fill="#FFFFFA"/>
<path opacity="0.34" d="M85.1184 102.973H82.4569V105.601H85.1184V102.973Z" fill="#FFFFFA"/>
<path opacity="0.34" d="M80.3279 92.0796H77.6663V94.7079H80.3279V92.0796Z" fill="#FFFFFA"/>
<path opacity="0.34" d="M80.3279 97.5259H77.6663V100.154H80.3279V97.5259Z" fill="#FFFFFA"/>
<path opacity="0.34" d="M80.3279 102.973H77.6663V105.601H80.3279V102.973Z" fill="#FFFFFA"/>
<path d="M97.0533 71.515H78.4361V25.7725H76.8965V71.515H26.6095V25.7725H25.07V71.515H4.53027V73.0545H25.07V118.295H26.6095V73.0545H76.8965V118.295H78.4361V73.0545H97.0533V71.515Z" fill="white"/>
<path d="M100.739 118.184H0.844604V121.26H100.739V118.184Z" fill="#F4F4F4"/>
<path opacity="0.1" d="M100.739 118.184H0.844604V121.26H100.739V118.184Z" fill="#292A2E"/>
<path opacity="0.1" d="M102.181 118.184H100.739V121.26H102.181V118.184Z" fill="#292A2E"/>
<path opacity="0.1" d="M102.181 118.184H100.739V121.26H102.181V118.184Z" fill="#292A2E"/>
<path d="M40.9277 135.703L204.755 135.703C208.778 135.703 212.039 132.441 212.039 128.418L212.039 8.47186C212.039 4.4487 208.778 1.1873 204.755 1.1873L40.9277 1.1873C36.9046 1.1873 33.6432 4.4487 33.6432 8.47186L33.6432 128.418C33.6432 132.441 36.9046 135.703 40.9277 135.703Z" fill="white"/>
<path d="M33.4003 128.418V8.47233C33.4024 6.47668 34.1961 4.56338 35.6072 3.15219C37.0183 1.741 38.9315 0.947158 40.9272 0.944824L204.755 0.944824C206.75 0.947083 208.664 1.74089 210.075 3.15209C211.486 4.56329 212.28 6.47663 212.282 8.47233V128.418C212.28 130.414 211.486 132.327 210.075 133.738C208.663 135.149 206.75 135.943 204.755 135.945H40.9272C38.9316 135.943 37.0184 135.149 35.6073 133.738C34.1962 132.327 33.4025 130.414 33.4003 128.418ZM40.9272 1.43042C39.0603 1.43261 37.2704 2.17523 35.9503 3.49538C34.6302 4.81553 33.8877 6.60539 33.8856 8.47233V128.418C33.8876 130.285 34.6301 132.075 35.9502 133.395C37.2703 134.715 39.0602 135.458 40.9272 135.46H204.755C206.622 135.458 208.411 134.715 209.732 133.395C211.052 132.075 211.794 130.285 211.796 128.418V8.47233C211.794 6.60537 211.052 4.81546 209.732 3.4953C208.411 2.17513 206.622 1.43253 204.755 1.43042H40.9272Z" fill="#292A2E"/>
<path d="M33.6446 8.47108V15.8012H212.039V8.47108C212.039 7.51439 211.851 6.56707 211.485 5.68321C211.118 4.79935 210.582 3.99627 209.905 3.31982C209.229 2.64338 208.426 2.10682 207.542 1.74078C206.658 1.37475 205.71 1.18641 204.754 1.18652H40.9272C38.9955 1.18705 37.1432 1.95476 35.7775 3.32083C34.4118 4.68689 33.6446 6.53944 33.6446 8.47108Z" fill="#292A2E"/>
<path d="M154.326 102.489H195.28L201.464 107.121V82.9488C201.464 82.4811 201.372 82.018 201.193 81.5858C201.014 81.1537 200.752 80.761 200.421 80.4303C200.09 80.0996 199.698 79.8372 199.265 79.6582C198.833 79.4793 198.37 79.3872 197.902 79.3872H154.326C153.858 79.387 153.395 79.479 152.963 79.6579C152.53 79.8368 152.137 80.0991 151.807 80.4299C151.476 80.7606 151.213 81.1533 151.034 81.5856C150.855 82.0178 150.763 82.481 150.763 82.9488V98.9273C150.763 99.3951 150.855 99.8583 151.034 100.291C151.213 100.723 151.476 101.115 151.807 101.446C152.137 101.777 152.53 102.039 152.963 102.218C153.395 102.397 153.858 102.489 154.326 102.489Z" fill="#095E40"/>
<path opacity="0.11" d="M154.326 102.489H195.28L201.464 107.121V82.9488C201.464 82.4811 201.372 82.018 201.193 81.5858C201.014 81.1537 200.752 80.761 200.421 80.4303C200.09 80.0996 199.698 79.8372 199.265 79.6582C198.833 79.4793 198.37 79.3872 197.902 79.3872H154.326C153.858 79.387 153.395 79.479 152.963 79.6579C152.53 79.8368 152.137 80.0991 151.807 80.4299C151.476 80.7606 151.213 81.1533 151.034 81.5856C150.855 82.0178 150.763 82.481 150.763 82.9488V98.9273C150.763 99.3951 150.855 99.8583 151.034 100.291C151.213 100.723 151.476 101.115 151.807 101.446C152.137 101.777 152.53 102.039 152.963 102.218C153.395 102.397 153.858 102.489 154.326 102.489Z" fill="white"/>
<path opacity="0.49" d="M154.326 102.489H195.28L201.464 107.121V82.9488C201.464 82.4811 201.372 82.018 201.193 81.5858C201.014 81.1537 200.752 80.761 200.421 80.4303C200.09 80.0996 199.698 79.8372 199.265 79.6582C198.833 79.4793 198.37 79.3872 197.902 79.3872H154.326C153.858 79.387 153.395 79.479 152.963 79.6579C152.53 79.8368 152.137 80.0991 151.807 80.4299C151.476 80.7606 151.213 81.1533 151.034 81.5856C150.855 82.0178 150.763 82.481 150.763 82.9488V98.9273C150.763 99.3951 150.855 99.8583 151.034 100.291C151.213 100.723 151.476 101.115 151.807 101.446C152.137 101.777 152.53 102.039 152.963 102.218C153.395 102.397 153.858 102.489 154.326 102.489Z" fill="white"/>
<path d="M155.13 89.0018H197.099C197.12 89.0027 197.141 88.9994 197.16 88.992C197.18 88.9846 197.198 88.9734 197.213 88.9589C197.228 88.9444 197.24 88.927 197.248 88.9078C197.256 88.8886 197.26 88.8679 197.26 88.8469C197.26 88.826 197.256 88.8053 197.248 88.7861C197.24 88.7668 197.228 88.7495 197.213 88.735C197.198 88.7205 197.18 88.7092 197.16 88.7019C197.141 88.6945 197.12 88.6911 197.099 88.692H155.13C155.109 88.6911 155.088 88.6945 155.068 88.7019C155.049 88.7092 155.031 88.7205 155.016 88.735C155.001 88.7495 154.988 88.7668 154.98 88.7861C154.972 88.8053 154.968 88.826 154.968 88.8469C154.968 88.8679 154.972 88.8886 154.98 88.9078C154.988 88.927 155.001 88.9444 155.016 88.9589C155.031 88.9734 155.049 88.9846 155.068 88.992C155.088 88.9994 155.109 89.0027 155.13 89.0018Z" fill="white"/>
<path d="M155.13 84.5926H197.099C197.12 84.5935 197.141 84.5902 197.16 84.5828C197.18 84.5754 197.198 84.5642 197.213 84.5497C197.228 84.5352 197.24 84.5179 197.248 84.4986C197.256 84.4794 197.26 84.4587 197.26 84.4378C197.26 84.4168 197.256 84.3961 197.248 84.3769C197.24 84.3577 197.228 84.3403 197.213 84.3258C197.198 84.3113 197.18 84.3001 197.16 84.2927C197.141 84.2853 197.12 84.282 197.099 84.2829H155.13C155.109 84.282 155.088 84.2853 155.068 84.2927C155.049 84.3001 155.031 84.3113 155.016 84.3258C155.001 84.3403 154.988 84.3577 154.98 84.3769C154.972 84.3961 154.968 84.4168 154.968 84.4378C154.968 84.4587 154.972 84.4794 154.98 84.4986C154.988 84.5179 155.001 84.5352 155.016 84.5497C155.031 84.5642 155.049 84.5754 155.068 84.5828C155.088 84.5902 155.109 84.5935 155.13 84.5926Z" fill="white"/>
<path d="M155.13 93.6498H197.099C197.12 93.6507 197.141 93.6473 197.16 93.64C197.18 93.6326 197.198 93.6213 197.213 93.6068C197.228 93.5924 197.24 93.575 197.248 93.5557C197.256 93.5365 197.26 93.5158 197.26 93.4949C197.26 93.474 197.256 93.4533 197.248 93.434C197.24 93.4148 197.228 93.3974 197.213 93.3829C197.198 93.3685 197.18 93.3572 197.16 93.3498C197.141 93.3424 197.12 93.3391 197.099 93.34H155.13C155.109 93.3391 155.088 93.3424 155.068 93.3498C155.049 93.3572 155.031 93.3685 155.016 93.3829C155.001 93.3974 154.988 93.4148 154.98 93.434C154.972 93.4533 154.968 93.474 154.968 93.4949C154.968 93.5158 154.972 93.5365 154.98 93.5557C154.988 93.575 155.001 93.5924 155.016 93.6068C155.031 93.6213 155.049 93.6326 155.068 93.64C155.088 93.6473 155.109 93.6507 155.13 93.6498Z" fill="white"/>
<path d="M155.13 98.2982H180.055C180.095 98.2965 180.133 98.2794 180.161 98.2506C180.188 98.2217 180.204 98.1833 180.204 98.1433C180.204 98.1034 180.188 98.0649 180.161 98.0361C180.133 98.0072 180.095 97.9901 180.055 97.9884H155.13C155.109 97.9875 155.088 97.9909 155.068 97.9983C155.049 98.0056 155.031 98.0169 155.016 98.0314C155.001 98.0458 154.988 98.0632 154.98 98.0825C154.972 98.1017 154.968 98.1224 154.968 98.1433C154.968 98.1642 154.972 98.1849 154.98 98.2042C154.988 98.2234 155.001 98.2408 155.016 98.2553C155.031 98.2697 155.049 98.281 155.068 98.2884C155.088 98.2958 155.109 98.2991 155.13 98.2982Z" fill="white"/>
<path d="M151.832 67.6962H195.698L201.463 72.0143V53.7478C201.463 52.8673 201.113 52.0228 200.491 51.4002C199.868 50.7775 199.024 50.4277 198.143 50.4277H151.83C150.95 50.4277 150.105 50.7775 149.483 51.4002C148.86 52.0228 148.51 52.8673 148.51 53.7478V64.3761C148.51 64.8123 148.596 65.2442 148.763 65.6471C148.93 66.05 149.175 66.4161 149.483 66.7244C149.792 67.0327 150.158 67.2773 150.561 67.444C150.964 67.6108 151.396 67.6965 151.832 67.6962Z" fill="#095E40"/>
<path opacity="0.11" d="M151.832 67.6962H195.698L201.463 72.0143V53.7478C201.463 52.8673 201.113 52.0228 200.491 51.4002C199.868 50.7775 199.024 50.4277 198.143 50.4277H151.83C150.95 50.4277 150.105 50.7775 149.483 51.4002C148.86 52.0228 148.51 52.8673 148.51 53.7478V64.3761C148.51 64.8123 148.596 65.2442 148.763 65.6471C148.93 66.05 149.175 66.4161 149.483 66.7244C149.792 67.0327 150.158 67.2773 150.561 67.444C150.964 67.6108 151.396 67.6965 151.832 67.6962Z" fill="white"/>
<path opacity="0.49" d="M151.832 67.6962H195.698L201.463 72.0143V53.7478C201.463 52.8673 201.113 52.0228 200.491 51.4002C199.868 50.7775 199.024 50.4277 198.143 50.4277H151.83C150.95 50.4277 150.105 50.7775 149.483 51.4002C148.86 52.0228 148.51 52.8673 148.51 53.7478V64.3761C148.51 64.8123 148.596 65.2442 148.763 65.6471C148.93 66.05 149.175 66.4161 149.483 66.7244C149.792 67.0327 150.158 67.2773 150.561 67.444C150.964 67.6108 151.396 67.6965 151.832 67.6962Z" fill="white"/>
<path d="M152.581 55.1232H197.395C197.432 55.1216 197.467 55.1056 197.493 55.0787C197.519 55.0518 197.533 55.0161 197.533 54.9788C197.533 54.9416 197.519 54.9058 197.493 54.879C197.467 54.8521 197.432 54.8361 197.395 54.8345H152.581C152.544 54.8361 152.509 54.8521 152.483 54.879C152.457 54.9058 152.443 54.9416 152.443 54.9788C152.443 55.0161 152.457 55.0518 152.483 55.0787C152.509 55.1056 152.544 55.1216 152.581 55.1232Z" fill="white"/>
<path d="M152.581 59.4562H197.395C197.432 59.4546 197.467 59.4386 197.493 59.4117C197.519 59.3848 197.533 59.3491 197.533 59.3118C197.533 59.2746 197.519 59.2388 197.493 59.212C197.467 59.1851 197.432 59.1691 197.395 59.1675H152.581C152.544 59.1691 152.509 59.1851 152.483 59.212C152.457 59.2388 152.443 59.2746 152.443 59.3118C152.443 59.3491 152.457 59.3848 152.483 59.4117C152.509 59.4386 152.544 59.4546 152.581 59.4562Z" fill="white"/>
<path d="M152.581 63.7894H181.507C181.526 63.7902 181.546 63.7871 181.564 63.7803C181.582 63.7734 181.599 63.7629 181.613 63.7494C181.627 63.7359 181.638 63.7197 181.646 63.7018C181.654 63.6838 181.658 63.6645 181.658 63.645C181.658 63.6255 181.654 63.6062 181.646 63.5882C181.638 63.5703 181.627 63.5541 181.613 63.5406C181.599 63.5271 181.582 63.5166 181.564 63.5097C181.546 63.5029 181.526 63.4998 181.507 63.5006H152.581C152.544 63.5023 152.509 63.5182 152.483 63.5451C152.457 63.572 152.443 63.6078 152.443 63.645C152.443 63.6822 152.457 63.718 152.483 63.7449C152.509 63.7718 152.544 63.7877 152.581 63.7894Z" fill="white"/>
<path d="M252.067 216.489C252.067 216.489 250.783 223.146 244.549 223.518C238.316 223.891 239.667 228.855 239.667 228.855H263.489V216.954L252.067 216.489Z" fill="#095E40"/>
<path d="M265.105 95.0382C265.105 95.0382 265.03 93.0367 265.045 97.5769C265.105 114.511 264.54 220.739 264.54 220.739L248.887 220.607L239.406 94.3501L265.105 95.0382Z" fill="#3A3A3A"/>
<path d="M225.337 216.489C225.337 216.489 224.053 223.146 217.819 223.518C211.586 223.891 212.937 228.855 212.937 228.855H236.76V216.954L225.337 216.489Z" fill="#095E40"/>
<path d="M222.309 96.3531C222.309 96.3531 220.353 154.231 220.557 157.06L222.395 220.299L237.79 220.583L240.272 154.772C240.272 154.772 241.9 136.618 246.286 119.761C248.53 111.109 249.881 102.25 250.316 93.3223L222.309 96.3531Z" fill="#3A3A3A"/>
<path d="M242.62 137.389L241.336 117.757C241.336 117.757 240.018 125.919 240.018 132.953C240.018 136.392 240.726 150.005 240.726 150.005L242.62 137.389Z" fill="#0A0A0A"/>
<path d="M265.274 95.0363L265.326 95.0392C265.326 95.0392 265.289 94.052 265.274 95.0363Z" fill="#333333"/>
<path d="M265.21 95.0363L265.261 95.0392C265.261 95.0392 265.224 94.052 265.21 95.0363Z" fill="#333333"/>
<path d="M179.433 48.0586C179.528 47.8718 179.678 47.7189 179.862 47.621C180.047 47.5231 180.258 47.4851 180.466 47.5121C180.464 47.4937 180.468 47.4752 180.477 47.4592C180.487 47.4467 180.499 47.437 180.514 47.4311C180.528 47.4251 180.544 47.4231 180.56 47.4253L179.86 46.9235C179.65 46.7802 179.5 46.5658 179.436 46.32C179.372 46.0741 179.4 45.8136 179.513 45.5865C179.633 45.3657 179.83 45.1971 180.066 45.1135C180.303 45.0298 180.562 45.0371 180.794 45.1339C180.792 45.1239 180.798 45.1145 180.8 45.1054L180.512 44.8992C180.315 44.7633 180.172 44.5636 180.105 44.3339C180.039 44.1042 180.054 43.8586 180.147 43.6387C180.209 43.502 180.3 43.3807 180.415 43.2835C180.529 43.1864 180.663 43.1158 180.808 43.0768C180.953 43.0379 181.105 43.0316 181.252 43.0583C181.4 43.0851 181.54 43.1443 181.661 43.2316L182.325 43.7072C182.327 43.7032 182.325 43.6987 182.328 43.695C182.33 43.6913 182.338 43.6902 182.341 43.6862C182.189 43.5147 182.099 43.2965 182.087 43.0674C182.075 42.8384 182.141 42.612 182.275 42.4254C182.588 41.9213 183.311 42.0243 183.74 42.3318L187.647 45.0303L186.949 43.8549C186.808 43.6286 186.759 43.3575 186.811 43.0962C186.862 42.835 187.011 42.603 187.227 42.447C187.341 42.3705 187.47 42.3181 187.605 42.293C187.74 42.2679 187.879 42.2706 188.013 42.3009C188.147 42.3313 188.274 42.3886 188.385 42.4695C188.496 42.5504 188.59 42.6531 188.66 42.7713L192.472 49.1899C192.92 49.9429 193.056 50.8406 192.852 51.6923C192.648 52.544 192.12 53.2826 191.38 53.7512C190.522 54.2945 189.521 54.5693 188.505 54.5401C187.49 54.511 186.507 54.1793 185.681 53.5876L179.782 49.3589C179.586 49.2131 179.444 49.0053 179.381 48.7693C179.318 48.5333 179.336 48.2828 179.433 48.0586Z" fill="#E98862"/>
<g opacity="0.25">
<path d="M186.191 46.3741C186.177 46.3938 186.155 46.4071 186.131 46.4112C186.107 46.4153 186.082 46.4099 186.062 46.396L182.35 43.825C182.34 43.8182 182.331 43.8093 182.323 43.7989C182.316 43.7885 182.311 43.7768 182.309 43.7644C182.306 43.7521 182.306 43.7393 182.309 43.727C182.312 43.7146 182.317 43.7029 182.324 43.6926C182.331 43.6822 182.34 43.6734 182.351 43.6667C182.361 43.66 182.373 43.6555 182.386 43.6535C182.398 43.6515 182.411 43.6521 182.423 43.6551C182.436 43.6582 182.447 43.6637 182.457 43.6713L186.169 46.2424C186.189 46.2566 186.203 46.2782 186.207 46.3025C186.212 46.3269 186.206 46.352 186.192 46.3724L186.191 46.3741Z" fill="#0C0C0C"/>
</g>
<g opacity="0.25">
<path d="M185.102 48.0421C185.088 48.0619 185.067 48.0752 185.042 48.0793C185.018 48.0834 184.994 48.0779 184.974 48.064L180.832 45.1948C180.812 45.1807 180.798 45.1591 180.794 45.1347C180.789 45.1103 180.795 45.0852 180.809 45.0648C180.823 45.0452 180.845 45.0318 180.869 45.0274C180.893 45.0231 180.918 45.028 180.939 45.0412L185.08 47.9118C185.1 47.926 185.114 47.9476 185.119 47.972C185.123 47.9963 185.118 48.0215 185.104 48.0418L185.102 48.0421Z" fill="#0C0C0C"/>
</g>
<g opacity="0.25">
<path d="M183.933 49.8559C183.919 49.8757 183.897 49.8891 183.873 49.8931C183.849 49.8972 183.824 49.8917 183.804 49.8778L180.5 47.5892C180.49 47.5822 180.481 47.5733 180.475 47.563C180.468 47.5527 180.463 47.5411 180.461 47.5291C180.459 47.517 180.459 47.5046 180.462 47.4926C180.464 47.4806 180.469 47.4693 180.476 47.4592C180.483 47.4491 180.492 47.4405 180.503 47.4338C180.513 47.4272 180.524 47.4226 180.536 47.4204C180.548 47.4183 180.561 47.4185 180.573 47.4211C180.585 47.4237 180.596 47.4286 180.606 47.4356L183.911 49.7242C183.931 49.7383 183.945 49.7599 183.949 49.7843C183.954 49.8087 183.948 49.8338 183.934 49.8542L183.933 49.8559Z" fill="#0C0C0C"/>
</g>
<path d="M194.722 47.7275L205.919 66.7968L219.581 48.8771L230.926 59.106L211.55 84.1996L211.424 84.3782C210.648 85.4405 209.615 86.2878 208.421 86.8404C207.228 87.393 205.913 87.6325 204.601 87.5365C203.29 87.4405 202.024 87.0122 200.923 86.2917C199.823 85.5713 198.924 84.5826 198.311 83.4187L182.39 54.586L194.722 47.7275Z" fill="#095E40"/>
<path d="M207.016 69.0899C207.039 69.09 207.061 69.0846 207.081 69.0742C207.115 69.0571 207.14 69.0273 207.152 68.9915C207.163 68.9556 207.16 68.9166 207.143 68.8831L206.045 66.7321C206.037 66.7149 206.026 66.6996 206.011 66.6869C205.997 66.6742 205.98 66.6646 205.962 66.6584C205.944 66.6523 205.925 66.6499 205.906 66.6513C205.887 66.6526 205.869 66.6578 205.852 66.6665C205.835 66.6751 205.82 66.6871 205.808 66.7017C205.796 66.7163 205.786 66.7332 205.781 66.7514C205.775 66.7695 205.773 66.7887 205.775 66.8076C205.777 66.8265 205.783 66.8449 205.792 66.8616L206.89 69.0125C206.901 69.0358 206.92 69.0553 206.942 69.069C206.964 69.0827 206.99 69.0899 207.016 69.0899Z" fill="#0C0C0C"/>
<path d="M256.446 23.0998C256.446 23.0998 256.97 29.8037 258.508 32.2206C262.935 39.1777 264.285 47.0466 259.981 51.2153C255.677 55.384 227.921 55.7627 225.709 46.3141C223.847 38.3593 227.636 37.4578 228.484 30.8671C228.868 27.8852 229.946 21.6299 229.946 21.6299" fill="#0A0A0A"/>
<path d="M232.777 44.8036C232.825 44.7973 233.357 53.6198 243.606 52.8505C250.702 52.3191 253.232 44.7911 253.394 44.7911C252.629 44.6284 251.341 44.3928 251.001 44.2107C249.884 43.6102 248.501 42.9858 248.141 40.8158C247.934 39.5641 248.286 33.1677 248.177 31.9023L237.286 34.3335C237.438 37.0055 238.503 43.2006 234.77 44.2969C234.148 44.4784 233.478 44.6451 232.777 44.8036Z" fill="#E98862"/>
<path opacity="0.52" d="M237.132 41.765C237.303 41.2153 237.412 40.6484 237.46 40.0747C237.579 38.7654 237.556 37.447 237.388 36.1429C239.602 35.8443 241.688 34.9307 243.408 33.5059C243.61 34.2526 244.722 37.517 244.414 38.2262C243.832 39.568 241.097 41.765 237.132 41.765Z" fill="#0C0C0C"/>
<path d="M238.576 38.9886C242.874 39.3544 248.41 37.5728 249.495 31.8412L250.473 26.6697C251.558 20.9383 249.427 15.7225 244.031 14.7012C238.634 13.68 233.722 17.5628 232.637 23.2941L232.204 25.5838C231.787 27.7828 230.906 38.336 238.576 38.9886Z" fill="#E98862"/>
<path d="M233.741 25.8329C234.115 25.8329 234.418 25.5301 234.418 25.1565C234.418 24.7829 234.115 24.48 233.741 24.48C233.368 24.48 233.065 24.7829 233.065 25.1565C233.065 25.5301 233.368 25.8329 233.741 25.8329Z" fill="#0C0C0C"/>
<path d="M240.672 26.7587C241.045 26.7587 241.348 26.4559 241.348 26.0822C241.348 25.7086 241.045 25.4058 240.672 25.4058C240.298 25.4058 239.995 25.7086 239.995 26.0822C239.995 26.4559 240.298 26.7587 240.672 26.7587Z" fill="#0C0C0C"/>
<path opacity="0.52" d="M236.868 31.0426L236.858 31.0409C236.639 30.9978 236.423 30.9428 236.211 30.8761C235.894 30.774 235.478 30.605 235.532 30.3186C235.594 29.992 237.155 26.6377 237.333 26.2563C237.341 26.2398 237.352 26.225 237.365 26.2127C237.378 26.2004 237.394 26.1908 237.411 26.1846C237.428 26.1784 237.446 26.1756 237.465 26.1764C237.483 26.1772 237.501 26.1816 237.517 26.1893C237.534 26.197 237.548 26.2078 237.561 26.2213C237.573 26.2347 237.583 26.2504 237.589 26.2675C237.595 26.2846 237.598 26.3028 237.597 26.3209C237.596 26.3391 237.592 26.357 237.584 26.3735C236.918 27.8018 235.846 30.1502 235.804 30.3701C235.84 30.4719 236.367 30.6656 236.909 30.7683C236.945 30.7745 236.977 30.7944 236.998 30.8238C237.019 30.8531 237.028 30.8895 237.023 30.9253C237.017 30.961 236.998 30.9933 236.969 31.0152C236.94 31.037 236.904 31.047 236.868 31.0426Z" fill="#0C0C0C"/>
<path opacity="0.52" d="M237.668 33.5175C236.787 33.4031 235.946 33.0836 235.212 32.5847C235.197 32.5748 235.184 32.5619 235.174 32.5469C235.163 32.5319 235.156 32.515 235.152 32.4972C235.149 32.4794 235.148 32.461 235.152 32.4431C235.155 32.4253 235.162 32.4082 235.172 32.393C235.182 32.3777 235.195 32.3646 235.21 32.3543C235.225 32.344 235.242 32.3368 235.259 32.3331C235.277 32.3293 235.295 32.3291 235.313 32.3324C235.331 32.3358 235.348 32.3426 235.364 32.3526C236.952 33.3875 238.531 33.5548 239.928 32.8362C239.957 32.8208 239.986 32.807 240.015 32.7946C240.05 32.7822 240.088 32.7839 240.121 32.7996C240.155 32.8152 240.18 32.8434 240.193 32.878C240.205 32.9126 240.204 32.9507 240.188 32.984C240.172 33.0173 240.144 33.043 240.109 33.0555C240.099 33.0601 240.081 33.0697 240.055 33.084C239.32 33.4629 238.489 33.6139 237.668 33.5175Z" fill="#0C0C0C"/>
<path d="M254.79 28.4719L249.954 27.5849C246.291 26.1025 245.183 19.7619 245.183 19.7619C245.183 19.7619 240.732 24.099 229.948 21.6323C229.948 21.6323 232.11 6.59263 248.043 10.9645C253.18 12.3746 256.867 17.5515 256.406 24.4705C256.084 29.3188 254.79 28.4719 254.79 28.4719Z" fill="#0A0A0A"/>
<path d="M248.829 33.5237C250.469 33.834 252.13 32.3311 252.442 30.6914C252.753 29.0517 251.594 27.8953 249.954 27.585L248.901 28.5237L247.421 33.2565L248.829 33.5237Z" fill="#E98862"/>
<path d="M236.345 23.5148C235.866 23.2061 235.314 23.0316 234.745 23.0096C234.465 22.9972 234.184 23.0269 233.913 23.0978C233.644 23.1667 233.385 23.2693 233.142 23.403C233.109 23.4207 233.085 23.4503 233.073 23.4858C233.062 23.5213 233.064 23.5599 233.08 23.5935C233.097 23.6271 233.125 23.6532 233.16 23.6663C233.195 23.6793 233.234 23.6783 233.268 23.6636L233.278 23.659C233.503 23.5487 233.741 23.4669 233.986 23.4155C234.228 23.3637 234.477 23.3488 234.723 23.3714C235.212 23.4124 235.682 23.5821 236.085 23.8633L236.098 23.8727C236.121 23.8895 236.147 23.9016 236.175 23.9083C236.203 23.9149 236.232 23.9161 236.26 23.9116C236.288 23.9072 236.315 23.8972 236.339 23.8822C236.364 23.8673 236.385 23.8477 236.402 23.8246C236.419 23.8015 236.431 23.7753 236.437 23.7475C236.444 23.7197 236.445 23.6908 236.441 23.6626C236.436 23.6343 236.426 23.6073 236.411 23.5829C236.397 23.5585 236.377 23.5373 236.354 23.5205L236.345 23.5148Z" fill="#0C0C0C"/>
<path d="M240.659 24.5303C241.136 24.4135 241.635 24.4249 242.106 24.5633C242.344 24.6316 242.571 24.7354 242.778 24.8711C242.988 25.0078 243.18 25.1703 243.35 25.3547L243.357 25.3627C243.384 25.3893 243.42 25.4045 243.457 25.4052C243.495 25.4059 243.531 25.3919 243.559 25.3663C243.586 25.3407 243.603 25.3054 243.604 25.2679C243.606 25.2304 243.594 25.1936 243.569 25.1653C243.391 24.9527 243.186 24.7634 242.961 24.602C242.733 24.438 242.483 24.3091 242.217 24.2197C241.678 24.0342 241.1 23.9972 240.542 24.1127C240.515 24.1187 240.488 24.1301 240.465 24.1463C240.441 24.1626 240.421 24.1833 240.406 24.2072C240.39 24.2312 240.379 24.258 240.374 24.2861C240.369 24.3141 240.37 24.343 240.376 24.3709C240.382 24.3988 240.393 24.4252 240.409 24.4487C240.425 24.4722 240.446 24.4923 240.47 24.5077C240.494 24.5232 240.521 24.5339 240.549 24.539C240.577 24.5441 240.606 24.5437 240.634 24.5377L240.643 24.5357L240.659 24.5303Z" fill="#0C0C0C"/>
<path opacity="0.52" d="M237.481 34.8175C237.321 34.7995 237.163 34.7678 237.009 34.7228C236.992 34.718 236.975 34.7097 236.96 34.6984C236.946 34.6872 236.934 34.6731 236.925 34.6571C236.916 34.6411 236.91 34.6235 236.908 34.6052C236.906 34.587 236.907 34.5685 236.912 34.5508C236.917 34.5332 236.926 34.5167 236.937 34.5024C236.949 34.488 236.963 34.4762 236.979 34.4674C236.995 34.4586 237.013 34.4531 237.031 34.4513C237.05 34.4494 237.068 34.4512 237.086 34.4565C238.013 34.7234 238.541 34.3698 238.563 34.3547C238.593 34.3336 238.631 34.3253 238.667 34.3317C238.703 34.3381 238.735 34.3587 238.756 34.3888C238.778 34.419 238.786 34.4564 238.779 34.4926C238.773 34.5289 238.753 34.5612 238.722 34.5823C238.348 34.8018 237.909 34.885 237.481 34.8175Z" fill="#0C0C0C"/>
<path d="M249.942 27.5236L249.99 27.3896C243.861 25.1895 245.36 19.1748 245.376 19.1143L245.238 19.0781C245.222 19.1399 243.689 25.2788 249.942 27.5236Z" fill="#0C0C0C"/>
<path opacity="0.1" d="M242.599 30.6615C242.655 30.1424 242.127 29.6599 241.419 29.5838C240.712 29.5076 240.093 29.8667 240.037 30.3858C239.981 30.9049 240.509 31.3874 241.217 31.4635C241.925 31.5397 242.544 31.1806 242.599 30.6615Z" fill="#0C0C0C"/>
<path opacity="0.1" d="M233.728 29.4778C233.671 29.9961 233.052 30.3549 232.344 30.2795C232.222 30.2664 232.101 30.2405 231.984 30.2024C231.944 29.5856 231.935 28.9919 231.947 28.4423C232.143 28.3909 232.346 28.3766 232.547 28.4002C233.255 28.4756 233.783 28.9578 233.728 29.4778Z" fill="#0C0C0C"/>
<path d="M220.042 64.2268C220.365 68.0194 221.935 91.6815 222.246 96.3529H265.023C265.264 92.1395 266.349 73.7158 267.266 65.4765C268.141 57.6142 269.857 53.6776 268.599 51.3534C266.545 47.5546 260.926 45.3593 257.096 44.8395C254.757 44.5229 251.239 44.2959 251.239 44.2959C251.239 44.2959 250.941 50.3214 243.839 50.6565C234.171 51.1116 234.817 44.2959 234.769 44.2959C233.203 44.2959 224.255 45.2873 222.066 46.5848C216.101 50.1183 219.357 56.1901 220.042 64.2268Z" fill="#095E40"/>
<path d="M219.7 82.8453C219.714 82.6366 219.792 82.4372 219.923 82.2747C220.055 82.1121 220.234 81.9944 220.435 81.9379C220.428 81.9271 220.424 81.9149 220.424 81.9023C220.423 81.8896 220.425 81.877 220.43 81.8655C220.436 81.854 220.443 81.8439 220.453 81.8362C220.463 81.8284 220.475 81.8232 220.487 81.821L219.647 81.6343C219.398 81.5844 219.176 81.4463 219.021 81.2455C218.866 81.0446 218.789 80.7946 218.803 80.5414C218.826 80.2917 218.941 80.0596 219.126 79.8899C219.311 79.7201 219.551 79.625 219.802 79.6228C219.797 79.6143 219.799 79.6032 219.796 79.5944L219.451 79.5176C219.217 79.4699 219.006 79.3427 218.855 79.1575C218.703 78.9724 218.621 78.7406 218.621 78.5014C218.624 78.3515 218.66 78.2041 218.727 78.0699C218.794 77.9357 218.89 77.818 219.008 77.7253C219.126 77.6326 219.263 77.5673 219.409 77.5339C219.555 77.5006 219.707 77.5001 219.853 77.5325L220.65 77.7094C220.65 77.7052 220.646 77.7017 220.647 77.6972C220.648 77.6926 220.654 77.6889 220.656 77.6835C220.449 77.5857 220.281 77.4203 220.18 77.2144C220.078 77.0086 220.05 76.7744 220.1 76.5505C220.19 75.9639 220.896 75.7744 221.411 75.8891L226.064 76.8372L224.96 76.0302C224.742 75.8774 224.59 75.6474 224.535 75.3868C224.479 75.1262 224.525 74.8543 224.663 74.6263C224.738 74.511 224.836 74.4123 224.95 74.3361C225.065 74.2599 225.194 74.2078 225.329 74.183C225.464 74.1583 225.603 74.1614 225.737 74.1921C225.871 74.2228 225.998 74.2805 226.109 74.3617L232.135 78.7677C232.842 79.2846 233.32 80.0568 233.467 80.9202C233.613 81.7837 233.418 82.6703 232.921 83.3918C232.345 84.2285 231.533 84.8741 230.588 85.2459C229.642 85.6177 228.608 85.6988 227.616 85.4787L220.53 83.9062C220.293 83.8488 220.081 83.7127 219.931 83.5202C219.78 83.3276 219.699 83.0898 219.7 82.8453Z" fill="#E98862"/>
<g opacity="0.25">
<path d="M225.254 78.6442C225.248 78.668 225.234 78.6888 225.213 78.702C225.193 78.7152 225.168 78.7199 225.144 78.7151L220.721 77.8079C220.696 77.8029 220.675 77.7885 220.662 77.7678C220.648 77.7471 220.643 77.7219 220.648 77.6976C220.653 77.6734 220.667 77.6521 220.688 77.6385C220.709 77.6248 220.734 77.62 220.758 77.625L225.182 78.5319C225.194 78.5343 225.205 78.5392 225.215 78.546C225.225 78.5529 225.234 78.5618 225.241 78.572C225.247 78.5823 225.252 78.5937 225.254 78.6058C225.257 78.6178 225.257 78.6302 225.254 78.6422L225.254 78.6442Z" fill="#0C0C0C"/>
</g>
<g opacity="0.25">
<path d="M224.908 80.6062C224.902 80.6299 224.887 80.6506 224.867 80.6638C224.846 80.6769 224.822 80.6816 224.798 80.6767L219.862 79.6643C219.85 79.6618 219.839 79.657 219.829 79.6501C219.818 79.6432 219.81 79.6344 219.803 79.6241C219.796 79.6139 219.792 79.6024 219.789 79.5904C219.787 79.5783 219.787 79.5659 219.79 79.5539C219.795 79.5301 219.81 79.5094 219.83 79.4959C219.851 79.4824 219.876 79.4772 219.9 79.4814L224.836 80.4935C224.848 80.496 224.86 80.5008 224.87 80.5077C224.88 80.5146 224.889 80.5234 224.895 80.5337C224.902 80.5439 224.907 80.5554 224.909 80.5675C224.911 80.5795 224.911 80.5919 224.909 80.6039L224.908 80.6062Z" fill="#0C0C0C"/>
</g>
<g opacity="0.25">
<path d="M224.545 82.7331C224.539 82.7569 224.525 82.7776 224.504 82.7908C224.484 82.804 224.459 82.8086 224.435 82.8037L220.497 81.9964C220.485 81.9939 220.474 81.9891 220.464 81.9822C220.454 81.9753 220.445 81.9665 220.438 81.9563C220.432 81.946 220.427 81.9346 220.425 81.9225C220.422 81.9105 220.422 81.8981 220.425 81.8861C220.427 81.8741 220.432 81.8627 220.439 81.8525C220.446 81.8424 220.455 81.8337 220.465 81.8269C220.475 81.8202 220.487 81.8155 220.499 81.8132C220.511 81.8109 220.523 81.811 220.535 81.8134L224.472 82.6208C224.497 82.6258 224.518 82.6402 224.532 82.6609C224.545 82.6816 224.55 82.7069 224.545 82.7311L224.545 82.7331Z" fill="#0C0C0C"/>
</g>
<path d="M228.055 88.2835L266.5 95.2312C267.7 95.3618 268.914 95.2127 270.046 94.7954C271.179 94.3782 272.199 93.7042 273.027 92.8264C273.855 91.9485 274.468 90.8907 274.819 89.736C275.17 88.5813 275.248 87.361 275.048 86.1709L269.665 54.1794C269.495 53.168 269.127 52.1999 268.583 51.3306C268.038 50.4613 267.328 49.7077 266.493 49.1128C265.657 48.518 264.713 48.0935 263.713 47.8637C262.714 47.6338 261.678 47.6031 260.667 47.7733C259.656 47.9435 258.688 48.3112 257.818 48.8555C256.949 49.3998 256.195 50.11 255.6 50.9455C255.006 51.7811 254.581 52.7256 254.351 53.7252C254.121 54.7248 254.091 55.7598 254.261 56.7713L257.931 78.7939L229.745 75.2539L228.055 88.2835Z" fill="#095E40"/>
<path d="M266.5 95.3734C266.536 95.3733 266.57 95.36 266.596 95.336C266.622 95.312 266.638 95.2791 266.642 95.2437C266.645 95.2084 266.635 95.1731 266.613 95.1449C266.591 95.1167 266.56 95.0975 266.525 95.0912L228.213 88.1676L229.868 75.4129L257.913 78.935C257.935 78.9378 257.957 78.9354 257.978 78.928C257.999 78.9206 258.018 78.9084 258.034 78.8924C258.049 78.8764 258.06 78.857 258.067 78.8358C258.073 78.8146 258.075 78.7922 258.071 78.7703L255.739 64.6953C255.736 64.6768 255.729 64.659 255.719 64.6431C255.709 64.6271 255.697 64.6133 255.681 64.6024C255.666 64.5915 255.649 64.5837 255.631 64.5796C255.612 64.5755 255.593 64.5751 255.575 64.5784C255.538 64.5846 255.505 64.6053 255.483 64.6359C255.461 64.6666 255.452 64.7047 255.458 64.7419L257.76 78.6286L229.762 75.1128C229.725 75.1081 229.687 75.1184 229.657 75.1414C229.627 75.1645 229.608 75.1983 229.603 75.2357L227.913 88.2646C227.908 88.3009 227.918 88.3376 227.939 88.3671C227.961 88.3966 227.993 88.4167 228.029 88.4231L266.474 95.3708C266.483 95.3724 266.491 95.3733 266.5 95.3734Z" fill="#0C0C0C"/>
<path d="M257.903 78.7595L257.858 79.0405L260.33 79.4362L260.375 79.1552L257.903 78.7595Z" fill="#0C0C0C"/>
<path d="M220.369 66.689L220.085 66.7051L220.426 72.728L220.71 72.7119L220.369 66.689Z" fill="#0C0C0C"/>
<path d="M185.136 39.4135H126.648L117.816 46.0287V11.5076C117.816 10.1585 118.352 8.8647 119.306 7.91076C120.26 6.95682 121.554 6.4209 122.903 6.4209H185.136C186.485 6.42097 187.779 6.95693 188.733 7.91086C189.687 8.86479 190.223 10.1586 190.223 11.5076V34.3271C190.223 35.6761 189.687 36.9698 188.733 37.9237C187.779 38.8776 186.485 39.4135 185.136 39.4135Z" fill="#095E40"/>
<path opacity="0.11" d="M185.136 39.4135H126.648L117.816 46.0287V11.5076C117.816 10.1585 118.352 8.8647 119.306 7.91076C120.26 6.95682 121.554 6.4209 122.903 6.4209H185.136C186.485 6.42097 187.779 6.95693 188.733 7.91086C189.687 8.86479 190.223 10.1586 190.223 11.5076V34.3271C190.223 35.6761 189.687 36.9698 188.733 37.9237C187.779 38.8776 186.485 39.4135 185.136 39.4135Z" fill="white"/>
<path d="M124.051 20.1521H183.99C184.049 20.1521 184.105 20.1288 184.146 20.0873C184.188 20.0458 184.211 19.9895 184.211 19.9308C184.211 19.8721 184.188 19.8158 184.146 19.7743C184.105 19.7328 184.049 19.7095 183.99 19.7095H124.051C123.992 19.7095 123.936 19.7328 123.894 19.7743C123.853 19.8158 123.83 19.8721 123.83 19.9308C123.83 19.9895 123.853 20.0458 123.894 20.0873C123.936 20.1288 123.992 20.1521 124.051 20.1521Z" fill="white"/>
<path d="M124.051 13.8552H183.99C184.049 13.8552 184.105 13.8319 184.146 13.7904C184.188 13.7489 184.211 13.6926 184.211 13.6339C184.211 13.5752 184.188 13.5189 184.146 13.4774C184.105 13.4359 184.049 13.4126 183.99 13.4126H124.051C123.992 13.4126 123.936 13.4359 123.894 13.4774C123.853 13.5189 123.83 13.5752 123.83 13.6339C123.83 13.6926 123.853 13.7489 123.894 13.7904C123.936 13.8319 123.992 13.8552 124.051 13.8552Z" fill="white"/>
<path d="M124.051 26.7903H183.99C184.049 26.7903 184.105 26.767 184.146 26.7255C184.188 26.684 184.211 26.6277 184.211 26.569C184.211 26.5103 184.188 26.454 184.146 26.4125C184.105 26.371 184.049 26.3477 183.99 26.3477H124.051C123.992 26.3477 123.936 26.371 123.894 26.4125C123.853 26.454 123.83 26.5103 123.83 26.569C123.83 26.6277 123.853 26.684 123.894 26.7255C123.936 26.767 123.992 26.7903 124.051 26.7903Z" fill="white"/>
<path d="M124.051 33.4285H159.648C159.707 33.4285 159.763 33.4052 159.804 33.3637C159.846 33.3222 159.869 33.2659 159.869 33.2072C159.869 33.1485 159.846 33.0922 159.804 33.0507C159.763 33.0092 159.707 32.9858 159.648 32.9858H124.051C123.992 32.9858 123.936 33.0092 123.894 33.0507C123.853 33.0922 123.83 33.1485 123.83 33.2072C123.83 33.2659 123.853 33.3222 123.894 33.3637C123.936 33.4052 123.992 33.4285 124.051 33.4285Z" fill="white"/>
<path d="M36.6171 191.657C36.5416 191.657 36.4693 191.627 36.416 191.574C36.0149 191.173 35.3617 183.819 33.6019 161.925C32.8819 152.966 32.2017 144.504 31.7053 139.361C31.6701 138.994 31.5275 138.952 31.4806 138.938C30.8013 138.732 28.7351 140.362 27.5813 141.789C27.5578 141.818 27.5288 141.842 27.496 141.86C27.4632 141.877 27.4271 141.889 27.39 141.893C27.3528 141.896 27.3153 141.893 27.2794 141.882C27.2436 141.872 27.2102 141.854 27.1812 141.831C27.1521 141.807 27.128 141.778 27.1102 141.746C27.0923 141.713 27.0811 141.677 27.0772 141.64C27.0733 141.602 27.0767 141.565 27.0873 141.529C27.0979 141.493 27.1154 141.46 27.1389 141.431C27.9019 140.487 30.3882 138.014 31.6445 138.393C31.8976 138.469 32.212 138.689 32.2703 139.307C32.767 144.454 33.4472 152.918 34.1678 161.879C35.2371 175.184 36.4484 190.257 36.8467 191.206C36.8772 191.249 36.8955 191.299 36.8994 191.351C36.9033 191.404 36.8928 191.456 36.8689 191.502C36.845 191.549 36.8087 191.588 36.764 191.615C36.7194 191.643 36.668 191.657 36.6157 191.657H36.6171Z" fill="#494949"/>
<path d="M30.9749 148.798C35.6954 145.014 37.26 139.125 34.4695 135.643C31.6789 132.162 25.59 132.407 20.8695 136.191C16.149 139.975 14.5844 145.865 17.3749 149.346C20.1655 152.827 26.2544 152.582 30.9749 148.798Z" fill="#F3CA52"/>
<path opacity="0.2" d="M30.9749 148.798C35.6954 145.014 37.26 139.125 34.4695 135.643C31.6789 132.162 25.59 132.407 20.8695 136.191C16.149 139.975 14.5844 145.865 17.3749 149.346C20.1655 152.827 26.2544 152.582 30.9749 148.798Z" fill="white"/>
<path d="M18.6977 150.231C18.6646 150.231 18.6326 150.219 18.6072 150.198C18.5785 150.174 18.5605 150.14 18.5569 150.102C18.5534 150.065 18.5648 150.028 18.5885 149.999L32.0416 133.776C32.0657 133.747 32.1004 133.728 32.1379 133.725C32.1755 133.721 32.213 133.733 32.242 133.757C32.2711 133.781 32.2893 133.816 32.2928 133.853C32.2963 133.891 32.2848 133.928 32.2606 133.957L18.8075 150.181C18.794 150.197 18.7771 150.209 18.7582 150.218C18.7392 150.227 18.7185 150.231 18.6977 150.231Z" fill="white"/>
<path d="M39.5512 188.179C39.5194 188.179 39.4878 188.173 39.4579 188.163C39.3866 188.138 39.3281 188.086 39.2953 188.018C39.2624 187.95 39.2578 187.872 39.2826 187.8L44.3358 173.268C44.4845 172.84 44.7381 172.458 45.0732 172.154C45.4083 171.85 45.8142 171.636 46.2538 171.53C46.6934 171.423 47.1525 171.429 47.5892 171.547C48.0259 171.664 48.4262 171.889 48.7534 172.201L51.4249 174.754C51.4529 174.779 51.4754 174.81 51.4913 174.844C51.5072 174.879 51.516 174.916 51.5173 174.954C51.5186 174.992 51.5123 175.03 51.4988 175.065C51.4853 175.1 51.4649 175.133 51.4387 175.16C51.4125 175.187 51.3812 175.209 51.3464 175.224C51.3117 175.24 51.2743 175.248 51.2364 175.248C51.1985 175.248 51.1609 175.241 51.1258 175.227C51.0907 175.213 51.0589 175.192 51.032 175.165L48.3602 172.613C48.102 172.367 47.786 172.189 47.4413 172.096C47.0966 172.004 46.7342 171.999 46.3873 172.083C46.0403 172.167 45.7199 172.336 45.4554 172.576C45.1908 172.815 44.9907 173.117 44.8731 173.454L39.8197 187.988C39.8003 188.043 39.764 188.092 39.7159 188.126C39.6678 188.16 39.6102 188.179 39.5512 188.179Z" fill="#494949"/>
<path d="M58.8888 182.799C62.3872 180.03 62.1793 173.939 58.4244 169.196C54.6696 164.452 48.7898 162.851 45.2914 165.62C41.7931 168.389 42.001 174.48 45.7558 179.223C49.5106 183.967 55.3905 185.568 58.8888 182.799Z" fill="#F3CA52"/>
<path d="M34.3211 190.73C34.2572 190.729 34.1952 190.708 34.1451 190.668C34.095 190.629 34.0597 190.573 34.0449 190.511L25.5655 155.053C25.5076 154.811 25.3841 154.59 25.2087 154.414C25.0333 154.238 24.8127 154.114 24.5712 154.055C24.3297 153.996 24.0767 154.005 23.84 154.081C23.6032 154.156 23.392 154.296 23.2294 154.484L20.6151 157.505C20.5907 157.534 20.561 157.557 20.5275 157.574C20.494 157.591 20.4575 157.601 20.42 157.604C20.3825 157.607 20.3448 157.603 20.3091 157.591C20.2734 157.579 20.2404 157.56 20.212 157.536C20.1836 157.511 20.1603 157.481 20.1436 157.448C20.1268 157.414 20.1169 157.377 20.1144 157.34C20.1118 157.302 20.1168 157.265 20.1289 157.229C20.141 157.193 20.1601 157.161 20.1849 157.132L22.799 154.112C23.0301 153.844 23.3305 153.646 23.667 153.539C24.0035 153.431 24.3632 153.419 24.7064 153.503C25.0496 153.586 25.3631 153.763 25.6122 154.013C25.8614 154.264 26.0367 154.578 26.1188 154.922L34.5993 190.38C34.6168 190.453 34.6045 190.531 34.565 190.595C34.5256 190.659 34.4622 190.705 34.3888 190.723C34.3666 190.728 34.3439 190.73 34.3211 190.73Z" fill="#494949"/>
<path d="M31.1924 165.382C32.2233 159.42 29.495 153.972 25.0986 153.211C20.7022 152.451 16.3025 156.667 15.2716 162.629C14.2407 168.59 16.969 174.039 21.3654 174.799C25.7618 175.56 30.1615 171.343 31.1924 165.382Z" fill="#F3CA52"/>
<path d="M36.6174 191.657C36.6057 191.657 36.594 191.656 36.5824 191.655C36.5453 191.65 36.5094 191.638 36.4769 191.62C36.4444 191.602 36.4158 191.577 36.3928 191.548C36.3698 191.518 36.3528 191.484 36.3428 191.448C36.3328 191.412 36.33 191.375 36.3346 191.338L41.7499 147.37C41.8088 146.891 42.0049 146.439 42.3144 146.069C42.624 145.699 43.0339 145.426 43.4948 145.283C43.9558 145.14 44.4482 145.134 44.9129 145.264C45.3775 145.394 45.7946 145.656 46.114 146.018L52.3039 153.028C52.3539 153.085 52.3794 153.159 52.3747 153.234C52.37 153.31 52.3356 153.38 52.279 153.43C52.2224 153.48 52.1483 153.505 52.073 153.501C51.9976 153.496 51.9272 153.462 51.8772 153.405L45.6873 146.395C45.4405 146.115 45.1181 145.913 44.759 145.812C44.3999 145.711 44.0194 145.716 43.6631 145.827C43.3069 145.937 42.99 146.148 42.7507 146.434C42.5115 146.72 42.3599 147.069 42.3143 147.439L36.8993 191.406C36.891 191.475 36.8578 191.539 36.8059 191.585C36.7539 191.631 36.6869 191.657 36.6174 191.657Z" fill="#494949"/>
<path d="M58.652 156.923C60.8116 153.019 58.2707 147.48 52.9767 144.552C47.6828 141.624 41.6405 142.415 39.4809 146.319C37.3213 150.223 39.8622 155.762 45.1562 158.69C50.4502 161.619 56.4924 160.828 58.652 156.923Z" fill="#F3CA52"/>
<path opacity="0.2" d="M58.8888 182.799C62.3872 180.03 62.1793 173.939 58.4244 169.196C54.6696 164.452 48.7898 162.851 45.2914 165.62C41.7931 168.389 42.001 174.48 45.7558 179.223C49.5106 183.967 55.3905 185.568 58.8888 182.799Z" fill="white"/>
<path opacity="0.5" d="M31.1924 165.382C32.2233 159.42 29.495 153.972 25.0986 153.211C20.7022 152.451 16.3025 156.667 15.2716 162.629C14.2407 168.59 16.969 174.039 21.3654 174.799C25.7618 175.56 30.1615 171.343 31.1924 165.382Z" fill="white"/>
<path opacity="0.5" d="M58.652 156.923C60.8116 153.019 58.2707 147.48 52.9767 144.552C47.6828 141.624 41.6405 142.415 39.4809 146.319C37.3213 150.223 39.8622 155.762 45.1562 158.69C50.4502 161.619 56.4924 160.828 58.652 156.923Z" fill="white"/>
<path d="M43.5435 228.963H29.6904L27.395 184.641H45.8389L43.5435 228.963Z" fill="#292A2E"/>
<path opacity="0.3" d="M43.5435 228.963H29.6904L27.395 184.641H45.8389L43.5435 228.963Z" fill="white"/>
<path d="M58.8895 182.941C58.8681 182.94 58.8469 182.936 58.8276 182.926C58.8083 182.917 58.7913 182.903 58.778 182.886L45.1801 165.708C45.1567 165.679 45.146 165.641 45.1503 165.603C45.1546 165.566 45.1737 165.532 45.2033 165.508C45.2329 165.485 45.2705 165.474 45.308 165.478C45.3455 165.483 45.3797 165.502 45.4031 165.531L59.0011 182.71C59.0242 182.739 59.0348 182.777 59.0304 182.814C59.0261 182.851 59.0071 182.886 58.9777 182.909C58.9527 182.929 58.9217 182.94 58.8895 182.941Z" fill="white"/>
<path d="M57.7476 158.3C57.7175 158.3 57.6882 158.29 57.664 158.272L40.2638 145.566C40.2339 145.544 40.2141 145.511 40.2086 145.474C40.2031 145.437 40.2123 145.399 40.2343 145.369C40.2563 145.339 40.2893 145.318 40.3262 145.312C40.3631 145.306 40.4008 145.315 40.4313 145.337L57.8319 158.042C57.8557 158.06 57.8734 158.085 57.8823 158.114C57.8912 158.142 57.8909 158.173 57.8814 158.201C57.872 158.229 57.8539 158.254 57.8297 158.271C57.8055 158.289 57.7764 158.298 57.7465 158.298L57.7476 158.3Z" fill="white"/>
<path d="M20.6595 174.614C20.6471 174.614 20.6347 174.613 20.6228 174.609C20.5863 174.6 20.5552 174.576 20.5364 174.543C20.5175 174.511 20.5123 174.472 20.5221 174.435L26.0611 153.682C26.0656 153.664 26.0738 153.647 26.0851 153.631C26.0964 153.616 26.1106 153.604 26.1268 153.594C26.1431 153.584 26.1611 153.578 26.1798 153.576C26.1985 153.573 26.2176 153.574 26.2358 153.579C26.254 153.584 26.2711 153.592 26.2861 153.604C26.301 153.615 26.3135 153.63 26.3228 153.646C26.3321 153.663 26.3381 153.681 26.3403 153.7C26.3426 153.718 26.3411 153.737 26.3359 153.755L20.7966 174.509C20.7885 174.539 20.7707 174.566 20.7459 174.585C20.7211 174.604 20.6907 174.614 20.6595 174.614Z" fill="white"/>
<path opacity="0.2" d="M80.3677 109.47C99.6635 109.47 115.306 93.8282 115.306 74.5324C115.306 55.2366 99.6635 39.5942 80.3677 39.5942C61.0719 39.5942 45.4296 55.2366 45.4296 74.5324C45.4296 93.8282 61.0719 109.47 80.3677 109.47Z" fill="#095E40"/>
<path d="M46.8517 110.871C45.1827 107.274 44.3173 103.356 44.3156 99.3906C44.3139 95.4252 45.176 91.507 46.842 87.9084C48.5079 84.3099 50.9377 81.1175 53.9624 78.5531C56.987 75.9887 60.534 74.1139 64.3566 73.0591L66.6779 81.4511C64.0739 82.1688 61.6576 83.4452 59.5969 85.1915C57.5362 86.9377 55.8807 89.1119 54.7455 91.5629C53.6103 94.0138 53.0227 96.6826 53.0235 99.3837C53.0243 102.085 53.6135 104.753 54.7501 107.204L46.8517 110.871Z" fill="#F3CA52"/>
<path d="M47.3071 122.376C46.8248 122.376 46.3518 122.243 45.9405 121.991C45.5293 121.739 45.1958 121.378 44.977 120.948C44.3658 119.748 43.997 118.439 43.8917 117.096C43.7863 115.753 43.9466 114.403 44.3632 113.122C45.2045 110.535 47.0392 108.388 49.4634 107.153C50.6638 106.542 51.9728 106.173 53.3158 106.068C54.6587 105.963 56.0092 106.123 57.2902 106.54C59.8772 107.381 62.0241 109.216 63.2585 111.64C63.5649 112.256 63.6156 112.969 63.3995 113.623C63.1834 114.276 62.718 114.818 62.1045 115.131C61.491 115.443 60.779 115.501 60.1232 115.291C59.4674 115.081 58.9209 114.621 58.6025 114.011C57.9969 112.821 56.9436 111.921 55.6743 111.508C54.4049 111.095 53.0235 111.203 51.834 111.809C50.6444 112.415 49.7442 113.468 49.3313 114.737C48.9183 116.007 49.0266 117.388 49.6321 118.578C49.8348 118.976 49.9319 119.419 49.9143 119.866C49.8967 120.312 49.765 120.747 49.5316 121.127C49.2983 121.508 48.9712 121.823 48.5816 122.042C48.1919 122.26 47.7527 122.375 47.306 122.376H47.3071Z" fill="#292A2E"/>
<path d="M114.469 85.7056C109.643 85.7092 104.904 84.4237 100.741 81.9821L105.137 74.4649C108.845 76.6269 113.188 77.4394 117.427 76.7646C121.666 76.0898 125.542 73.9693 128.396 70.7627L134.902 76.5501C130.261 81.7841 123.781 85.0278 116.81 85.6063C116.027 85.6727 115.247 85.7058 114.469 85.7056Z" fill="#F3CA52"/>
<path d="M136.968 77.9842C135.024 77.9805 133.12 77.4244 131.48 76.3805C129.84 75.3366 128.53 73.848 127.703 72.0882C126.876 70.3284 126.567 68.3699 126.811 66.4409C127.054 64.5119 127.841 62.6919 129.08 61.193C129.298 60.9285 129.567 60.7097 129.87 60.549C130.173 60.3883 130.505 60.2888 130.846 60.2564C131.188 60.2239 131.532 60.259 131.86 60.3597C132.188 60.4604 132.493 60.6247 132.758 60.8432C133.022 61.0618 133.241 61.3303 133.402 61.6334C133.562 61.9365 133.662 62.2683 133.694 62.6099C133.727 62.9514 133.692 63.296 133.591 63.624C133.49 63.952 133.326 64.2569 133.107 64.5214C132.263 65.5508 131.861 66.873 131.989 68.1984C132.117 69.5238 132.766 70.7443 133.792 71.5925C134.819 72.4408 136.14 72.8475 137.465 72.7237C138.791 72.5999 140.014 71.9556 140.866 70.932C141.084 70.6675 141.353 70.4487 141.656 70.288C141.959 70.1273 142.291 70.0279 142.632 69.9954C142.974 69.9629 143.318 69.998 143.646 70.0987C143.974 70.1994 144.279 70.3637 144.544 70.5823C144.808 70.8008 145.027 71.0693 145.188 71.3724C145.349 71.6755 145.448 72.0073 145.48 72.3489C145.513 72.6904 145.478 73.035 145.377 73.363C145.276 73.691 145.112 73.9959 144.894 74.2604C144.038 75.3015 142.984 76.1625 141.794 76.7938C140.603 77.425 139.3 77.8138 137.958 77.9378C137.627 77.9691 137.297 77.9845 136.968 77.9842Z" fill="#292A2E"/>
<path d="M58.5092 73.5166L64.2826 106.165C65.0289 110.386 67.2378 114.209 70.5217 116.963C73.8056 119.717 77.9547 121.227 82.2407 121.227C86.4192 121.227 90.4709 119.792 93.718 117.162C96.9652 114.532 99.2107 110.867 100.079 106.78L107.146 73.5166H58.5092Z" fill="#F3CA52"/>
<path d="M82.827 80.7063C96.2575 80.7063 107.145 77.4873 107.145 73.5165C107.145 69.5457 96.2575 66.3267 82.827 66.3267C69.3965 66.3267 58.5089 69.5457 58.5089 73.5165C58.5089 77.4873 69.3965 80.7063 82.827 80.7063Z" fill="#292A2E"/>
<path d="M106.589 54.2183C106.589 64.7894 95.9493 69.8755 82.827 69.8755C69.7047 69.8755 59.0656 64.7894 59.0656 54.2183C59.0656 43.6472 69.705 31.5942 82.827 31.5942C95.949 31.5942 106.589 43.6472 106.589 54.2183Z" fill="#F3CA52"/>
<path d="M95.8133 41.3901H82.2973C78.0608 41.3901 74.6264 44.8245 74.6264 49.061V49.0613C74.6264 53.2978 78.0608 56.7322 82.2973 56.7322H95.8133C100.05 56.7322 103.484 53.2978 103.484 49.0613V49.061C103.484 44.8245 100.05 41.3901 95.8133 41.3901Z" fill="white"/>
<path d="M88.6525 51.8496C88.4215 51.8496 88.2001 51.7578 88.0368 51.5945C87.8734 51.4312 87.7817 51.2097 87.7817 50.9788C87.7855 50.587 87.7117 50.1984 87.5644 49.8353C87.4172 49.4723 87.1994 49.142 86.9237 48.8636C86.648 48.5852 86.3199 48.3642 85.9583 48.2134C85.5967 48.0626 85.2088 47.9849 84.817 47.9849C84.4253 47.9849 84.0374 48.0626 83.6758 48.2134C83.3142 48.3642 82.986 48.5852 82.7104 48.8636C82.4347 49.142 82.2169 49.4723 82.0697 49.8353C81.9224 50.1984 81.8485 50.587 81.8524 50.9788C81.8524 51.2097 81.7606 51.4312 81.5973 51.5945C81.434 51.7578 81.2125 51.8496 80.9816 51.8496C80.7507 51.8496 80.5292 51.7578 80.3659 51.5945C80.2026 51.4312 80.1108 51.2097 80.1108 50.9788C80.106 50.3577 80.2242 49.7418 80.4585 49.1665C80.6929 48.5913 81.0387 48.0682 81.4762 47.6273C81.9137 47.1864 82.4342 46.8364 83.0076 46.5976C83.5809 46.3588 84.1959 46.2358 84.817 46.2358C85.4382 46.2358 86.0532 46.3588 86.6265 46.5976C87.1999 46.8364 87.7204 47.1864 88.1579 47.6273C88.5954 48.0682 88.9412 48.5913 89.1756 49.1665C89.4099 49.7418 89.5281 50.3577 89.5233 50.9788C89.5233 51.0932 89.5008 51.2064 89.4571 51.3121C89.4133 51.4177 89.3492 51.5137 89.2683 51.5946C89.1874 51.6755 89.0914 51.7396 88.9858 51.7834C88.8801 51.8271 88.7668 51.8496 88.6525 51.8496Z" fill="#292A2E"/>
<path d="M100.496 51.8496C100.265 51.8496 100.044 51.7578 99.8806 51.5945C99.7173 51.4312 99.6256 51.2097 99.6256 50.9788C99.6294 50.587 99.5555 50.1984 99.4083 49.8353C99.261 49.4723 99.0432 49.142 98.7676 48.8636C98.4919 48.5852 98.1638 48.3642 97.8022 48.2134C97.4406 48.0626 97.0527 47.9849 96.6609 47.9849C96.2691 47.9849 95.8812 48.0626 95.5196 48.2134C95.158 48.3642 94.8299 48.5852 94.5542 48.8636C94.2785 49.142 94.0608 49.4723 93.9135 49.8353C93.7662 50.1984 93.6924 50.587 93.6962 50.9788C93.6962 51.2097 93.6045 51.4312 93.4412 51.5945C93.2779 51.7578 93.0564 51.8496 92.8255 51.8496C92.5945 51.8496 92.373 51.7578 92.2097 51.5945C92.0464 51.4312 91.9547 51.2097 91.9547 50.9788C91.9498 50.3577 92.068 49.7418 92.3024 49.1665C92.5367 48.5913 92.8826 48.0682 93.3201 47.6273C93.7576 47.1864 94.278 46.8364 94.8514 46.5976C95.4248 46.3588 96.0398 46.2358 96.6609 46.2358C97.282 46.2358 97.897 46.3588 98.4704 46.5976C99.0438 46.8364 99.5642 47.1864 100.002 47.6273C100.439 48.0682 100.785 48.5913 101.019 49.1665C101.254 49.7418 101.372 50.3577 101.367 50.9788C101.367 51.0932 101.345 51.2064 101.301 51.3121C101.257 51.4177 101.193 51.5137 101.112 51.5946C101.031 51.6755 100.935 51.7396 100.83 51.7834C100.724 51.8271 100.611 51.8496 100.496 51.8496Z" fill="#292A2E"/>
<path d="M82.8215 23.4127L81.7662 23.4644L82.2867 34.0984L83.342 34.0468L82.8215 23.4127Z" fill="#F3CA52"/>
<path d="M82.3323 26.157C83.3988 26.157 84.2633 25.2924 84.2633 24.2259C84.2633 23.1595 83.3988 22.2949 82.3323 22.2949C81.2658 22.2949 80.4013 23.1595 80.4013 24.2259C80.4013 25.2924 81.2658 26.157 82.3323 26.157Z" fill="#292A2E"/>
<path d="M198.269 114.916H131.05C127.927 114.916 125.395 117.447 125.395 120.57C125.395 123.693 127.927 126.224 131.05 126.224H198.269C201.392 126.224 203.923 123.693 203.923 120.57C203.923 117.447 201.392 114.916 198.269 114.916Z" fill="white"/>
<path d="M198.271 126.438H131.049C130.275 126.443 129.508 126.295 128.791 126.003C128.074 125.71 127.423 125.279 126.874 124.734C126.324 124.188 125.889 123.54 125.591 122.825C125.294 122.111 125.141 121.344 125.141 120.57C125.141 119.796 125.294 119.03 125.591 118.315C125.889 117.601 126.324 116.952 126.874 116.407C127.423 115.861 128.074 115.43 128.791 115.138C129.508 114.845 130.275 114.697 131.049 114.703H198.271C199.82 114.714 201.302 115.336 202.393 116.436C203.485 117.535 204.097 119.021 204.097 120.57C204.097 122.119 203.485 123.606 202.393 124.705C201.302 125.804 199.82 126.427 198.271 126.438ZM131.049 115.129C130.331 115.124 129.619 115.261 128.955 115.532C128.29 115.803 127.686 116.203 127.176 116.709C126.667 117.215 126.263 117.816 125.987 118.479C125.711 119.142 125.569 119.852 125.569 120.57C125.569 121.288 125.711 121.999 125.987 122.661C126.263 123.324 126.667 123.926 127.176 124.431C127.686 124.937 128.29 125.337 128.955 125.608C129.619 125.879 130.331 126.016 131.049 126.011H198.271C199.707 126.001 201.08 125.423 202.092 124.404C203.104 123.384 203.672 122.006 203.672 120.57C203.672 119.134 203.104 117.756 202.092 116.737C201.08 115.718 199.707 115.14 198.271 115.129H131.049Z" fill="#292A2E"/>
<path d="M270.304 229.055H25.5354C25.5092 229.055 25.4833 229.05 25.4592 229.04C25.435 229.03 25.413 229.015 25.3946 228.997C25.3761 228.978 25.3614 228.956 25.3514 228.932C25.3414 228.908 25.3362 228.882 25.3362 228.856C25.3362 228.83 25.3414 228.804 25.3514 228.78C25.3614 228.756 25.3761 228.734 25.3946 228.715C25.413 228.697 25.435 228.682 25.4592 228.672C25.4833 228.662 25.5092 228.657 25.5354 228.657H270.304C270.356 228.657 270.407 228.678 270.444 228.715C270.482 228.752 270.503 228.803 270.503 228.856C270.503 228.909 270.482 228.959 270.444 228.997C270.407 229.034 270.356 229.055 270.304 229.055Z" fill="#292A2E"/>
</g>
<defs>
<clipPath id="clip0_313_5351">
<rect width="274.311" height="228.11" fill="white" transform="translate(0.844604 0.944824)"/>
</clipPath>
</defs>
</svg>
