<svg width="328" height="298" viewBox="0 0 328 298" fill="none" xmlns="http://www.w3.org/2000/svg">
<g clip-path="url(#clip0_166_3036)">
<path d="M155.468 106.389C176.109 116.058 190.804 117.574 207.721 98.9993C224.637 80.4246 251.865 86.3257 269.05 109.556C286.235 132.786 280.404 164.282 250.148 177.92C219.211 191.865 217.761 177.032 188.041 172.415C160.21 168.09 150.958 186.32 124.086 201.561C97.2148 216.803 53.5447 210.323 50.819 160.326C49.455 135.307 53.4583 100.12 93.0081 92.2256C124.525 85.9353 139.665 98.9865 155.468 106.389Z" fill="#FAFBFF"/>
<path d="M270.289 199.026C270.289 199.026 262.368 151.019 274.61 147.829C286.853 144.639 274.41 201.443 274.41 201.443" fill="#DAE8E3"/>
<path d="M269.107 195.867C269.107 195.867 247.024 164.487 255.971 155.542C264.917 146.597 273.884 195.867 273.884 195.867" fill="#095E40"/>
<path d="M278.074 192.883H263.924V209.171H278.074V192.883Z" fill="#F3CA52"/>
<path d="M244.863 195.806L248.413 209.171H243.401L237.763 195.806H244.863Z" fill="#DAE8E3"/>
<path d="M101.28 195.806L97.7299 209.171H102.742L108.38 195.806H101.28Z" fill="#DAE8E3"/>
<path d="M222.03 195.806L225.58 209.171H220.568L214.93 195.806H222.03Z" fill="#E7F0ED"/>
<path d="M78.4469 195.806L74.8969 209.171H79.9086L85.5469 195.806H78.4469Z" fill="#E7F0ED"/>
<path d="M78.9844 176.553H216.561L212.33 130.55C212.185 128.962 211.45 127.485 210.272 126.41C209.094 125.335 207.556 124.739 205.961 124.739H81.2325C79.5363 124.739 77.9096 125.413 76.7103 126.613C75.511 127.812 74.8373 129.439 74.8374 131.135C74.8374 131.33 74.8464 131.525 74.8643 131.72L78.9844 176.553Z" fill="#E7F0ED"/>
<path d="M253.227 149.988H209.321V198.188H253.227V149.988Z" fill="#E7F0ED"/>
<path d="M91.5007 176.553H226.694L222.465 130.55C222.319 128.962 221.585 127.485 220.407 126.41C219.228 125.335 217.691 124.739 216.096 124.739H93.7488C92.9088 124.739 92.0771 124.905 91.3011 125.226C90.525 125.547 89.8199 126.019 89.226 126.612C88.632 127.206 88.1609 127.912 87.8394 128.688C87.518 129.464 87.3525 130.295 87.3525 131.135C87.3525 131.33 87.3615 131.525 87.3795 131.72L91.5007 176.553Z" fill="#DAE8E3"/>
<g opacity="0.48">
<path d="M91.5007 176.553H226.694L222.465 130.55C222.319 128.962 221.585 127.485 220.407 126.41C219.228 125.335 217.691 124.739 216.096 124.739H93.7488C92.9088 124.739 92.0771 124.905 91.3011 125.226C90.525 125.547 89.8199 126.019 89.226 126.612C88.632 127.206 88.1609 127.912 87.8394 128.688C87.518 129.464 87.3525 130.295 87.3525 131.135C87.3525 131.33 87.3615 131.525 87.3795 131.72L91.5007 176.553Z" fill="#E7F0ED"/>
</g>
<path d="M107.6 200.152H70.2073C68.4802 200.152 66.8238 199.466 65.6025 198.245C64.3813 197.024 63.6952 195.367 63.6952 193.64V156.5C63.6952 154.773 64.3813 153.117 65.6025 151.896C66.8238 150.674 68.4802 149.988 70.2073 149.988H107.6V200.152Z" fill="#E7F0ED"/>
<path d="M107.6 200.153H253.227C255.122 200.153 256.939 199.4 258.279 198.06C259.618 196.72 260.371 194.903 260.371 193.008V157.133C260.371 155.238 259.618 153.421 258.279 152.081C256.939 150.741 255.122 149.988 253.227 149.988C251.332 149.988 249.515 150.741 248.175 152.081C246.835 153.421 246.082 155.238 246.082 157.133V185.863H114.745V157.133C114.733 155.246 113.975 153.44 112.637 152.11C111.298 150.78 109.488 150.034 107.601 150.034C105.714 150.034 103.903 150.78 102.565 152.11C101.226 153.44 100.468 155.246 100.456 157.133V193.008C100.456 194.903 101.209 196.72 102.549 198.06C103.888 199.4 105.705 200.152 107.6 200.153Z" fill="#DAE8E3"/>
<path d="M249.823 187.044H114.648V171.761H249.823C251.034 171.761 252.195 172.242 253.051 173.098C253.907 173.954 254.388 175.115 254.388 176.326V182.478C254.388 183.689 253.907 184.85 253.051 185.706C252.195 186.562 251.034 187.043 249.823 187.043V187.044Z" fill="#F3F5FD"/>
<g opacity="0.15">
<path d="M249.823 187.044H114.648V171.761H249.823C251.034 171.761 252.195 172.242 253.051 173.098C253.907 173.954 254.388 175.115 254.388 176.326V182.478C254.388 183.689 253.907 184.85 253.051 185.706C252.195 186.562 251.034 187.043 249.823 187.043V187.044Z" fill="#E7F0ED"/>
</g>
<path d="M119.686 145.578C123.867 145.972 129.259 146.126 134.281 145.202C134.976 145.076 135.691 145.117 136.366 145.323C137.042 145.528 137.659 145.891 138.166 146.383C138.674 146.874 139.056 147.479 139.283 148.148C139.51 148.817 139.574 149.53 139.47 150.228C138.808 154.64 138.316 159.913 140.324 166.143C140.534 166.802 140.58 167.503 140.458 168.185C140.336 168.867 140.049 169.508 139.623 170.054C139.197 170.6 138.643 171.033 138.011 171.316C137.379 171.599 136.688 171.724 135.997 171.679C131.574 171.401 125.682 171.246 120.175 171.789C119.469 171.86 118.756 171.761 118.096 171.5C117.436 171.239 116.849 170.823 116.383 170.288C115.917 169.753 115.586 169.114 115.417 168.425C115.249 167.736 115.249 167.016 115.416 166.326C116.353 162.508 116.735 157.353 115.009 151.259C114.807 150.563 114.777 149.828 114.923 149.117C115.069 148.407 115.386 147.743 115.847 147.183C116.308 146.623 116.898 146.184 117.567 145.905C118.236 145.625 118.963 145.512 119.686 145.578Z" fill="#DAE8E3"/>
<path d="M162.513 145.578C166.695 145.972 172.087 146.126 177.109 145.203C177.803 145.077 178.518 145.118 179.194 145.323C179.87 145.529 180.487 145.892 180.994 146.383C181.501 146.875 181.884 147.48 182.11 148.148C182.337 148.817 182.401 149.53 182.297 150.229C181.635 154.64 181.144 159.913 183.151 166.143C183.362 166.803 183.408 167.504 183.286 168.185C183.164 168.867 182.877 169.508 182.451 170.054C182.025 170.599 181.471 171.033 180.84 171.316C180.208 171.599 179.516 171.724 178.826 171.679C174.403 171.401 168.511 171.247 163.003 171.79C162.297 171.861 161.584 171.762 160.924 171.501C160.265 171.239 159.677 170.824 159.211 170.289C158.745 169.754 158.414 169.115 158.246 168.425C158.078 167.736 158.077 167.016 158.244 166.327C159.181 162.508 159.563 157.353 157.838 151.26C157.635 150.563 157.606 149.828 157.752 149.118C157.897 148.408 158.214 147.744 158.675 147.184C159.136 146.624 159.726 146.185 160.395 145.905C161.064 145.625 161.791 145.513 162.513 145.578Z" fill="#DAE8E3"/>
<path d="M198.723 145.578C202.905 145.972 208.297 146.126 213.319 145.203C214.014 145.077 214.728 145.118 215.404 145.323C216.08 145.529 216.697 145.892 217.204 146.383C217.711 146.875 218.094 147.48 218.321 148.148C218.547 148.817 218.611 149.53 218.507 150.229C217.846 154.64 217.354 159.913 219.362 166.143C219.572 166.803 219.618 167.504 219.496 168.185C219.374 168.867 219.087 169.508 218.661 170.054C218.235 170.599 217.682 171.033 217.05 171.316C216.418 171.599 215.727 171.724 215.036 171.679C210.613 171.401 204.721 171.247 199.213 171.79C198.507 171.861 197.794 171.762 197.135 171.501C196.475 171.239 195.887 170.824 195.421 170.289C194.955 169.754 194.624 169.115 194.456 168.425C194.288 167.736 194.287 167.016 194.455 166.327C195.391 162.508 195.774 157.353 194.048 151.26C193.846 150.563 193.816 149.828 193.962 149.118C194.108 148.408 194.425 147.744 194.885 147.184C195.346 146.624 195.936 146.185 196.605 145.905C197.274 145.625 198.001 145.513 198.723 145.578Z" fill="#DAE8E3"/>
<path d="M70.4177 184.636C68.9545 184.157 67.4527 184.695 66.0161 185.788C67.9086 181.009 68.6896 176.692 65.4542 176.498C63.1903 176.362 61.4562 178.099 60.1387 180.568C59.6755 176.227 58.48 172.988 55.8021 174.062C52.8622 175.241 52.4151 179.28 52.861 183.506C51.5658 181.347 50.1714 180.144 48.9051 181.41C45.1263 185.189 54.4018 195.838 54.4018 195.838H56.7052L58.02 197.265C57.7537 197.828 57.6079 198.163 57.6079 198.163L59.2778 201.561C59.2778 201.561 76.4903 186.624 70.4177 184.636Z" fill="#095E40"/>
<path d="M66.2877 209.171H53.2506L51.0681 193.952H68.4699L66.2877 209.171Z" fill="#DAE8E3"/>
<path d="M119.96 112.518L120.648 109.121C120.648 109.121 116.478 106.708 112.498 108.653C111.179 109.297 111.883 110.801 112.391 110.846C114.063 110.997 116.296 110.68 117.514 111.455C116.879 111.627 116.027 111.914 116.097 112.198C116.283 112.945 119.96 112.518 119.96 112.518Z" fill="#E98862"/>
<path d="M197.047 167.296C195.175 165.917 192.913 164.279 192.528 164.036C192.553 164.051 192.574 164.063 192.59 164.072L195.621 158.727C195.782 158.818 196.269 159.094 200.689 162.345L197.047 167.296Z" fill="#E98862"/>
<path d="M207.089 157.367C207.245 157.089 207.284 156.761 207.198 156.454C207.112 156.147 206.907 155.887 206.629 155.731C206.603 155.716 206.577 155.703 206.551 155.691C206.343 155.594 206.112 155.558 205.885 155.587C205.658 155.617 205.444 155.711 205.268 155.858L199.656 160.896C199.548 160.994 199.462 161.115 199.404 161.249C199.347 161.383 199.319 161.528 199.323 161.674C199.431 162.866 199.154 164.061 198.532 165.084C198.015 165.862 197.29 166.479 196.439 166.864C196.359 166.895 196.289 166.948 196.238 167.017C196.187 167.086 196.157 167.168 196.151 167.254C196.145 167.339 196.163 167.425 196.204 167.501C196.244 167.576 196.306 167.639 196.38 167.681L199.424 169.407C199.605 169.51 199.819 169.536 200.019 169.481C200.22 169.425 200.39 169.292 200.493 169.111V169.109L207.089 157.367Z" fill="#B3D0C6"/>
<path d="M215.083 170.47C215.083 170.47 208.816 169.469 208.261 169.382L209.211 163.311C209.767 163.398 216.052 164.402 216.052 164.402L215.083 170.47Z" fill="#E98862"/>
<path d="M197.568 160.473L198.337 158.738C190.233 155.374 183.086 150.511 175.097 146.886C172.138 145.358 165.898 141.521 161.665 143.311C152.542 146.164 116.326 157.499 116.326 157.499C116.326 157.499 116.041 160.583 115.988 161.625C115.315 175.07 135.115 170.89 144.034 171.608C158.893 171.637 197.669 171.693 213.077 171.725L213.233 160.897L197.568 160.473ZM174.448 159.845L152.639 159.254C156.412 157.804 160.112 156.354 163.536 155.153C167.137 156.687 170.792 158.255 174.447 159.845H174.448ZM138.894 156.981L138.816 157.004L138.747 156.536C138.803 156.682 138.853 156.83 138.894 156.981Z" fill="#3A3A3A"/>
<path d="M219.555 157.388C219.579 157.232 219.571 157.073 219.534 156.919C219.496 156.766 219.428 156.622 219.334 156.495C219.241 156.368 219.123 156.26 218.988 156.179C218.853 156.097 218.703 156.043 218.547 156.019C218.518 156.015 218.489 156.011 218.459 156.009C218.231 155.991 218.002 156.039 217.8 156.147C217.597 156.255 217.43 156.418 217.318 156.618L213.846 163.315C213.779 163.445 213.741 163.587 213.734 163.733C213.728 163.879 213.753 164.025 213.808 164.16C214.33 165.237 214.493 166.453 214.273 167.629C214.063 168.54 213.602 169.373 212.942 170.034C212.878 170.091 212.832 170.165 212.808 170.248C212.785 170.331 212.785 170.418 212.81 170.5C212.835 170.583 212.882 170.656 212.947 170.713C213.012 170.769 213.091 170.806 213.176 170.819L216.632 171.359C216.734 171.375 216.838 171.371 216.938 171.347C217.038 171.322 217.132 171.279 217.215 171.218C217.298 171.157 217.368 171.081 217.422 170.993C217.476 170.905 217.511 170.807 217.527 170.706V170.703L219.555 157.388Z" fill="#B3D0C6"/>
<path d="M127.513 127.554L123.311 122.755L133.168 114.966L119.323 113.968L119.782 107.604L141.247 109.152C141.875 109.196 142.476 109.426 142.974 109.812C143.471 110.197 143.844 110.722 144.044 111.319C144.244 111.916 144.264 112.558 144.099 113.166C143.935 113.774 143.594 114.319 143.12 114.734L127.513 127.554Z" fill="#095E40"/>
<path d="M140.148 151.792C140.031 154.863 118.016 164.72 115.912 160.22C114.573 157.356 116.161 153.78 113.924 148.053C111.687 142.326 103.561 137.07 106.177 131.1C106.936 129.368 108.773 127.724 111.394 126.697C112.187 128.149 121.474 124.528 120.959 123.001C121.315 122.868 121.593 122.767 121.768 122.707C130.964 119.564 131.011 131.409 133.877 139.004C137.226 147.893 140.269 148.628 140.148 151.792Z" fill="#095E40"/>
<path d="M103.331 119.155L100.709 116.888C100.709 116.888 102.532 112.428 106.871 111.533C108.309 111.236 108.67 112.856 108.297 113.201C107.066 114.342 105.105 115.458 104.616 116.815C105.223 116.564 106.074 116.27 106.191 116.537C106.501 117.244 103.331 119.155 103.331 119.155Z" fill="#E98862"/>
<path d="M120.959 123C121.474 124.526 121.52 127.05 119.069 128.199C115.803 129.729 112.187 128.148 111.394 126.695L111.402 126.692C114.703 125.403 119.024 123.722 120.959 123Z" fill="#E98862"/>
<path d="M112.407 127.48C112.407 127.48 114.201 125.652 111.856 119.931L116.051 117.691C116.051 117.691 117.221 123.116 120.005 124.073L112.407 127.48Z" fill="#E98862"/>
<g opacity="0.15">
<path d="M118.743 123.263L114.142 121.605L117.039 120.652C117.44 121.621 118.018 122.506 118.743 123.263Z" fill="black"/>
</g>
<path d="M108.606 118.456C109.48 120.14 110.987 121.519 112.742 121.596C114.824 121.688 116.221 121.295 118.373 120.613C121.309 119.682 120.241 116.651 119.344 113.539C118.444 110.415 117.144 107.17 115.641 106.459C112.642 105.038 106.277 108.559 106.593 112.425C106.756 114.425 107.774 116.854 108.606 118.456Z" fill="#E98862"/>
<path d="M118.768 105.429C117.705 103.783 115.896 103.389 113.574 104.854C111.923 105.895 111.561 105.544 109.804 105.292C108.797 105.149 105.994 106.25 105.9 108.413C105.799 110.731 102.915 109.795 103.769 113.248C104.485 116.138 106.2 119.642 110.131 121.12C110.793 121.465 111.5 121.716 112.232 121.864C112.549 121.938 112.573 121.789 112.572 121.463C112.567 120.311 112.067 116.438 110.851 113.543C110.651 113.067 110.5 112.276 111.741 111.824C113.097 111.331 116.765 110.507 117.741 109.201C117.74 109.202 119.83 107.074 118.768 105.429Z" fill="#0F1011"/>
<path d="M115.02 114.889C115.255 114.889 115.445 114.699 115.445 114.465C115.445 114.231 115.255 114.041 115.02 114.041C114.786 114.041 114.596 114.231 114.596 114.465C114.596 114.699 114.786 114.889 115.02 114.889Z" fill="#0F1011"/>
<path d="M118.126 113.616C118.36 113.616 118.55 113.426 118.55 113.192C118.55 112.958 118.36 112.768 118.126 112.768C117.892 112.768 117.702 112.958 117.702 113.192C117.702 113.426 117.892 113.616 118.126 113.616Z" fill="#0F1011"/>
<path d="M117.465 112.439C117.414 112.451 117.361 112.443 117.317 112.416C117.272 112.39 117.239 112.347 117.226 112.297C117.212 112.247 117.219 112.194 117.244 112.149C117.269 112.103 117.311 112.07 117.36 112.054L118.435 111.728C118.485 111.716 118.537 111.723 118.582 111.748C118.626 111.773 118.659 111.814 118.674 111.863C118.689 111.912 118.685 111.964 118.662 112.01C118.64 112.056 118.6 112.091 118.552 112.109L117.476 112.435L117.465 112.439Z" fill="#0F1011"/>
<path d="M113.903 114.013C113.856 114.024 113.808 114.018 113.766 113.997C113.723 113.975 113.69 113.939 113.672 113.895C113.654 113.851 113.653 113.802 113.667 113.757C113.682 113.712 113.713 113.674 113.753 113.649L114.728 113.06C114.75 113.045 114.774 113.034 114.8 113.028C114.826 113.022 114.853 113.021 114.879 113.025C114.905 113.03 114.93 113.039 114.952 113.054C114.975 113.068 114.994 113.086 115.009 113.108C115.024 113.13 115.035 113.155 115.04 113.18C115.046 113.206 115.046 113.233 115.041 113.259C115.036 113.285 115.026 113.31 115.011 113.332C114.996 113.354 114.978 113.373 114.955 113.388C114.948 113.393 114.941 113.397 114.933 113.401L113.958 113.99C113.941 114 113.922 114.008 113.903 114.013Z" fill="#0F1011"/>
<path d="M113.232 116.122C113.409 116.563 113.404 117.055 113.219 117.492C113.034 117.929 112.684 118.275 112.245 118.455C111.806 118.635 111.314 118.634 110.875 118.453C110.437 118.271 110.088 117.924 109.905 117.486C109.813 117.272 109.765 117.043 109.762 116.811C109.759 116.579 109.801 116.348 109.887 116.133C109.973 115.917 110.101 115.72 110.263 115.554C110.425 115.388 110.618 115.255 110.831 115.163C110.85 115.155 110.868 115.148 110.887 115.141C112.095 114.712 112.855 115.202 113.232 116.122Z" fill="#E98862"/>
<g opacity="0.15">
<path d="M117.526 116.138C117.492 116.148 117.456 116.147 117.424 116.133C117.392 116.119 117.366 116.094 117.35 116.063C117.335 116.031 117.331 115.995 117.34 115.961C117.349 115.928 117.37 115.898 117.398 115.878L118.14 115.365L117.159 114.267C117.146 114.252 117.136 114.236 117.13 114.218C117.124 114.199 117.121 114.18 117.122 114.161C117.123 114.142 117.128 114.123 117.136 114.106C117.145 114.088 117.156 114.073 117.171 114.06C117.185 114.047 117.202 114.037 117.22 114.031C117.238 114.025 117.257 114.022 117.277 114.023C117.296 114.024 117.315 114.029 117.332 114.037C117.349 114.046 117.365 114.057 117.377 114.072L118.469 115.293C118.495 115.322 118.508 115.36 118.506 115.399C118.504 115.438 118.486 115.474 118.458 115.5C118.453 115.504 118.448 115.508 118.443 115.511L117.565 116.119C117.553 116.127 117.54 116.133 117.526 116.138Z" fill="black"/>
</g>
<path d="M116.217 117.589C116.217 117.589 117.759 117.273 118.689 116.576C118.689 116.576 118.993 117.561 117.843 118.033C116.693 118.504 116.217 117.589 116.217 117.589Z" fill="white"/>
<path d="M89.4493 137.65C88.8532 137.651 88.2689 137.484 87.7628 137.169C87.2566 136.854 86.8488 136.404 86.5856 135.869C86.3224 135.334 86.2143 134.736 86.2736 134.143C86.3329 133.55 86.5573 132.986 86.9211 132.513L100.465 114.926L105.52 118.818L96.5379 130.484L109.329 127.894L110.096 134.555L89.7937 137.632C89.6793 137.644 89.5643 137.65 89.4493 137.65Z" fill="#095E40"/>
<path d="M114.745 185.863V157.133C114.733 155.246 113.975 153.44 112.636 152.11C111.298 150.78 109.487 150.034 107.6 150.034C105.713 150.034 103.903 150.78 102.564 152.11C101.226 153.44 100.468 155.246 100.456 157.133" fill="#DAE8E3"/>
<path d="M233.455 93.5717L227.501 103.886L230.54 105.64L236.495 95.3264L233.455 93.5717Z" fill="#DAE8E3"/>
<path d="M240.115 93.6509H236.606V105.56H240.115V93.6509Z" fill="#DAE8E3"/>
<path d="M219.676 90.418H216.167V105.561H219.676V90.418Z" fill="#DAE8E3"/>
<path d="M223.285 93.6509H219.776V105.56H223.285V93.6509Z" fill="#F3CA52"/>
<path d="M216.167 92.1206H212.657V105.561H216.167V92.1206Z" fill="#F3CA52"/>
<path d="M227.482 91.7017H223.34V105.561H227.482V91.7017Z" fill="#F3CA52"/>
<path d="M207.035 101.604C207.035 101.604 207.051 95.6801 204.076 94.4428C201.101 93.2055 205.555 101.604 205.555 101.604H207.035Z" fill="#DAE8E3"/>
<path d="M205.555 101.603C205.555 101.603 204.002 90.5142 207.176 90.5142C210.351 90.5142 207.035 101.603 207.035 101.603" fill="#DAE8E3"/>
<path d="M206.507 102.092C206.507 102.092 207.997 92.2083 210.654 93.0013C213.312 93.7944 207.553 102.404 207.553 102.404L206.507 102.092Z" fill="#DAE8E3"/>
<path d="M210.508 98.6309H203.578V105.561H210.508V98.6309Z" fill="#095E40"/>
<path d="M212.04 105.561H200.755V107.1H212.04V105.561Z" fill="#E7F0ED"/>
<path d="M241.869 105.561H209.885V107.1H241.869V105.561Z" fill="#DAE8E3"/>
</g>
<defs>
<clipPath id="clip0_166_3036">
<rect width="232" height="121.171" fill="white" transform="translate(48 88)"/>
</clipPath>
</defs>
</svg>
