<svg width="298" height="215" viewBox="0 0 298 215" fill="none" xmlns="http://www.w3.org/2000/svg">
<g clip-path="url(#clip0_313_7670)">
<path d="M256.518 141.783L255.958 141.851L262.874 211.411L263.434 211.343L256.518 141.783Z" fill="#292A2E"/>
<path d="M274.43 172.149L271.028 209.195L271.588 209.258L274.991 172.212L274.43 172.149Z" fill="#292A2E"/>
<path d="M280.28 204.718H255.035V213.735H280.28V204.718Z" fill="#292A2E"/>
<path opacity="0.2" d="M280.28 204.718H255.035V213.735H280.28V204.718Z" fill="white"/>
<path d="M295.498 188.114C300.281 181.118 298.001 170.348 290.406 164.059C282.811 157.769 272.778 158.342 267.996 165.337C263.214 172.333 265.493 183.103 273.088 189.393C280.683 195.682 290.716 195.11 295.498 188.114Z" fill="#F3CA52"/>
<path opacity="0.2" d="M295.498 188.114C300.281 181.118 298.001 170.348 290.406 164.059C282.811 157.769 272.778 158.342 267.996 165.337C263.214 172.333 265.493 183.103 273.088 189.393C280.683 195.682 290.716 195.11 295.498 188.114Z" fill="white"/>
<path opacity="0.5" d="M295.498 188.115C295.177 188.587 294.826 189.034 294.449 189.453C289.185 193.155 281.414 192.572 275.25 187.466C267.656 181.178 265.377 170.408 270.16 163.412C270.482 162.941 270.831 162.495 271.206 162.074C276.474 158.37 284.241 158.956 290.408 164.059C298.001 170.35 300.28 181.12 295.498 188.115Z" fill="white"/>
<path d="M260.269 161.573C267.792 155.181 269.837 144.218 264.836 137.087C259.835 129.956 249.682 129.357 242.158 135.749C234.635 142.141 232.59 153.104 237.591 160.235C242.592 167.366 252.745 167.965 260.269 161.573Z" fill="#F3CA52"/>
<path opacity="0.2" d="M257.884 159.738C252.058 164.691 244.653 165.446 239.285 162.222C238.664 161.619 238.097 160.953 237.591 160.232C232.589 153.103 234.633 142.139 242.157 135.748C247.983 130.797 255.388 130.04 260.753 133.262C261.376 133.864 261.944 134.532 262.45 135.254C267.452 142.383 265.407 153.347 257.884 159.738Z" fill="white"/>
<path d="M208.806 102.528L295.338 102.669V67.4126H208.806V102.528Z" fill="#EFEFEF"/>
<path d="M287.887 77.191H216.256C216.221 77.1923 216.185 77.1857 216.152 77.1717C216.119 77.1576 216.089 77.1364 216.064 77.1092C216.038 77.0821 216.018 77.0496 216.004 77.0136C215.99 76.9777 215.983 76.9391 215.983 76.9C215.983 76.861 215.99 76.8224 216.004 76.7864C216.018 76.7505 216.038 76.718 216.064 76.6908C216.089 76.6637 216.119 76.6425 216.152 76.6284C216.185 76.6144 216.221 76.6078 216.256 76.609H287.887C287.923 76.6078 287.958 76.6144 287.991 76.6284C288.024 76.6425 288.054 76.6637 288.08 76.6908C288.105 76.718 288.126 76.7505 288.139 76.7864C288.153 76.8224 288.16 76.861 288.16 76.9C288.16 76.9391 288.153 76.9777 288.139 77.0136C288.126 77.0496 288.105 77.0821 288.08 77.1092C288.054 77.1364 288.024 77.1576 287.991 77.1717C287.958 77.1857 287.923 77.1923 287.887 77.191Z" fill="white"/>
<path d="M287.887 85.9234H216.256C216.221 85.9247 216.185 85.9181 216.152 85.9041C216.119 85.89 216.089 85.8688 216.064 85.8416C216.038 85.8145 216.018 85.782 216.004 85.7461C215.99 85.7101 215.983 85.6715 215.983 85.6324C215.983 85.5934 215.99 85.5548 216.004 85.5188C216.018 85.4829 216.038 85.4504 216.064 85.4232C216.089 85.3961 216.119 85.3749 216.152 85.3608C216.185 85.3468 216.221 85.3402 216.256 85.3415H287.887C287.923 85.3402 287.958 85.3468 287.991 85.3608C288.024 85.3749 288.054 85.3961 288.08 85.4232C288.105 85.4504 288.126 85.4829 288.139 85.5188C288.153 85.5548 288.16 85.5934 288.16 85.6324C288.16 85.6715 288.153 85.7101 288.139 85.7461C288.126 85.782 288.105 85.8145 288.08 85.8416C288.054 85.8688 288.024 85.89 287.991 85.9041C287.958 85.9181 287.923 85.9247 287.887 85.9234Z" fill="white"/>
<path d="M287.887 94.6555H245.345C245.275 94.6555 245.208 94.6249 245.158 94.5703C245.109 94.5157 245.081 94.4416 245.081 94.3644C245.081 94.2872 245.109 94.2131 245.158 94.1585C245.208 94.1039 245.275 94.0732 245.345 94.0732H287.887C287.957 94.0732 288.025 94.1039 288.074 94.1585C288.124 94.2131 288.152 94.2872 288.152 94.3644C288.152 94.4416 288.124 94.5157 288.074 94.5703C288.025 94.6249 287.957 94.6555 287.887 94.6555Z" fill="white"/>
<path d="M105.561 46.9705L0.843964 46.9987L0.851851 0.944824H105.561V46.9705Z" fill="#EFEFEF"/>
<path d="M97.7403 11.1351H8.67239C8.61658 11.1351 8.56306 11.1107 8.52359 11.0673C8.48413 11.0238 8.46196 10.9649 8.46196 10.9035C8.46196 10.8421 8.48413 10.7831 8.52359 10.7397C8.56306 10.6963 8.61658 10.6719 8.67239 10.6719H97.7403C97.7961 10.6719 97.8496 10.6963 97.8891 10.7397C97.9286 10.7831 97.9507 10.8421 97.9507 10.9035C97.9507 10.9649 97.9286 11.0238 97.8891 11.0673C97.8496 11.1107 97.7961 11.1351 97.7403 11.1351Z" fill="white"/>
<path d="M97.7403 20.3011H8.67239C8.61658 20.3011 8.56306 20.2767 8.52359 20.2333C8.48413 20.1898 8.46196 20.1309 8.46196 20.0695C8.46196 20.0081 8.48413 19.9492 8.52359 19.9057C8.56306 19.8623 8.61658 19.8379 8.67239 19.8379H97.7403C97.7961 19.8379 97.8496 19.8623 97.8891 19.9057C97.9286 19.9492 97.9507 20.0081 97.9507 20.0695C97.9507 20.1309 97.9286 20.1898 97.8891 20.2333C97.8496 20.2767 97.7961 20.3011 97.7403 20.3011Z" fill="white"/>
<path d="M97.7403 29.4666H8.67239C8.61658 29.4666 8.56306 29.4422 8.52359 29.3988C8.48413 29.3554 8.46196 29.2965 8.46196 29.235C8.46196 29.1736 8.48413 29.1147 8.52359 29.0713C8.56306 29.0278 8.61658 29.0034 8.67239 29.0034H97.7403C97.7961 29.0034 97.8496 29.0278 97.8891 29.0713C97.9286 29.1147 97.9507 29.1736 97.9507 29.235C97.9507 29.2965 97.9286 29.3554 97.8891 29.3988C97.8496 29.4422 97.7961 29.4666 97.7403 29.4666Z" fill="white"/>
<path d="M53.3271 38.6327H8.67239C8.61658 38.6327 8.56306 38.6083 8.52359 38.5648C8.48413 38.5214 8.46196 38.4625 8.46196 38.401C8.46196 38.3396 8.48413 38.2807 8.52359 38.2373C8.56306 38.1938 8.61658 38.1694 8.67239 38.1694H53.3271C53.3829 38.1694 53.4364 38.1938 53.4759 38.2373C53.5153 38.2807 53.5375 38.3396 53.5375 38.401C53.5375 38.4625 53.5153 38.5214 53.4759 38.5648C53.4364 38.6083 53.3829 38.6327 53.3271 38.6327Z" fill="white"/>
<path d="M247.755 22.5874H57.6959C53.0286 22.5874 49.2449 26.7519 49.2449 31.8891V185.05C49.2449 190.187 53.0286 194.352 57.6959 194.352H247.755C252.422 194.352 256.206 190.187 256.206 185.05V31.8891C256.206 26.7519 252.422 22.5874 247.755 22.5874Z" fill="white"/>
<path d="M247.754 194.661H57.6959C55.3807 194.659 53.161 193.645 51.5239 191.843C49.8868 190.041 48.9659 187.598 48.9633 185.05V31.8887C48.9659 29.3404 49.8869 26.8973 51.524 25.0953C53.1611 23.2934 55.3807 22.2798 57.6959 22.2769H247.754C250.07 22.2797 252.289 23.2933 253.926 25.0953C255.564 26.8972 256.485 29.3403 256.487 31.8887V185.05C256.485 187.598 255.564 190.041 253.927 191.843C252.289 193.645 250.07 194.659 247.754 194.661ZM57.6959 22.897C55.53 22.8996 53.4535 23.8478 51.922 25.5335C50.3905 27.2192 49.529 29.5047 49.5267 31.8887V185.05C49.529 187.434 50.3905 189.719 51.922 191.405C53.4535 193.091 55.53 194.039 57.6959 194.041H247.754C249.92 194.039 251.997 193.091 253.528 191.405C255.06 189.719 255.921 187.434 255.924 185.05V31.8887C255.921 29.5047 255.06 27.2192 253.528 25.5335C251.997 23.8478 249.92 22.8996 247.754 22.897H57.6959Z" fill="#292A2E"/>
<path d="M256.205 31.8887V41.2487H49.2458V31.8887C49.2458 29.4217 50.1362 27.0557 51.721 25.3113C53.3059 23.5669 55.4554 22.5869 57.6968 22.5869H247.754C249.996 22.5869 252.145 23.5669 253.73 25.3113C255.315 27.0557 256.205 29.4217 256.205 31.8887Z" fill="#292A2E"/>
<path opacity="0.2" d="M138.431 116.87H107.823C103.961 116.87 100.83 120.316 100.83 124.567C100.83 128.817 103.961 132.263 107.823 132.263H138.431C142.293 132.263 145.424 128.817 145.424 124.567C145.424 120.316 142.293 116.87 138.431 116.87Z" fill="#095E40"/>
<path opacity="0.2" d="M197.22 116.87H166.612C162.75 116.87 159.619 120.316 159.619 124.567C159.619 128.817 162.75 132.263 166.612 132.263H197.22C201.082 132.263 204.213 128.817 204.213 124.567C204.213 120.316 201.082 116.87 197.22 116.87Z" fill="#095E40"/>
<path opacity="0.1" d="M235.764 82.4795C235.764 84.4204 235.417 86.3422 234.742 88.1354C234.068 89.9286 233.079 91.558 231.832 92.9305C230.585 94.303 229.105 95.3918 227.476 96.1347C225.847 96.8775 224.101 97.2599 222.338 97.26H88.4293C86.666 97.26 84.92 96.8777 83.291 96.135C81.6619 95.3923 80.1817 94.3037 78.9349 92.9313C77.688 91.559 76.699 89.9298 76.0242 88.1367C75.3494 86.3437 75.0021 84.4219 75.0021 82.4811C75.0021 80.5403 75.3494 78.6185 76.0242 76.8254C76.699 75.0324 77.688 73.4031 78.9349 72.0308C80.1817 70.6584 81.6619 69.5698 83.291 68.8271C84.92 68.0844 86.666 67.7021 88.4293 67.7021H222.338C225.899 67.7023 229.313 69.2593 231.831 72.0305C234.349 74.8018 235.763 78.5604 235.764 82.4795Z" fill="#095E40"/>
<path d="M235.764 82.4795C235.764 84.4204 235.417 86.3422 234.742 88.1354C234.068 89.9286 233.079 91.558 231.832 92.9305C230.585 94.303 229.105 95.3918 227.476 96.1347C225.847 96.8775 224.101 97.2599 222.338 97.26H201.537V67.7021H222.338C225.899 67.7023 229.313 69.2593 231.831 72.0305C234.349 74.8018 235.763 78.5604 235.764 82.4795Z" fill="#095E40"/>
<path d="M215.413 86.5908C213.835 86.5923 212.309 85.9704 211.112 84.8384C209.915 83.7063 209.127 82.1391 208.89 80.4216C208.654 78.7041 208.986 76.9503 209.824 75.4789C210.663 74.0076 211.954 72.9163 213.462 72.4035C214.97 71.8906 216.595 71.9903 218.041 72.6843C219.488 73.3783 220.661 74.6205 221.346 76.1853C222.031 77.7502 222.184 79.5336 221.775 81.2116C221.367 82.8896 220.426 84.3507 219.122 85.3295C218.029 86.1499 216.737 86.5894 215.413 86.5908ZM215.393 73.6223C214.056 73.6231 212.77 74.1907 211.803 75.2071C210.837 76.2236 210.262 77.6108 210.2 79.0809C210.138 80.551 210.593 81.9909 211.47 83.1017C212.347 84.2126 213.579 84.909 214.91 85.0465C216.241 85.1839 217.569 84.7518 218.619 83.8399C219.668 82.9279 220.358 81.6061 220.545 80.149C220.733 78.6919 220.403 77.2113 219.625 76.0147C218.847 74.818 217.679 73.9973 216.366 73.7228C216.045 73.6561 215.719 73.6224 215.393 73.6223Z" fill="white"/>
<path d="M225.132 92.8877C225.029 92.8878 224.928 92.8631 224.834 92.8152C224.741 92.7673 224.658 92.6974 224.592 92.6105L218.719 84.8971C218.599 84.7396 218.541 84.536 218.557 84.3312C218.574 84.1264 218.663 83.9372 218.806 83.8051C218.95 83.6731 219.135 83.609 219.321 83.627C219.507 83.645 219.679 83.7437 219.799 83.9012L225.672 91.6145C225.758 91.7276 225.813 91.8653 225.83 92.0115C225.848 92.1578 225.827 92.3065 225.77 92.4401C225.714 92.5738 225.624 92.6869 225.511 92.7662C225.398 92.8455 225.266 92.8876 225.132 92.8877Z" fill="white"/>
<path d="M10.5623 197.336C8.86027 197.335 7.1835 196.883 5.67471 196.016C4.16592 195.149 2.86979 193.893 1.89664 192.356C0.923496 190.819 0.302156 189.047 0.0855149 187.188C-0.131127 185.33 0.0633449 183.442 0.652375 181.684C1.24986 179.9 15.3213 137.897 17.9893 130.329L37.6862 138.74C36.1862 142.995 30.7511 159.124 26.3848 172.118L33.6388 171.249L35.922 194.367L11.7054 197.265C11.3258 197.311 10.9442 197.335 10.5623 197.336Z" fill="#095E40"/>
<path d="M23.2219 196.147L20.0006 213.794H82.5658L78.962 195.811L23.2219 196.147Z" fill="#3A3A3A"/>
<path d="M36.7493 117.278C31.5221 117.705 26.1921 119.575 22.2672 123.399C16.3473 129.166 16.8741 132.772 19.8294 148.744C22.372 162.487 21.3635 168.493 23.0644 193.853C23.1145 194.6 23.2219 196.146 23.2219 196.146L79.1392 196.043C79.1392 196.043 84.3788 162.397 87.2715 146.878C89.4713 135.08 95.2495 120.758 70.8868 117.871C70.8226 117.864 51.2831 116.092 36.7493 117.278Z" fill="#095E40"/>
<path d="M151.274 104.557C148.64 104.556 146.073 103.643 143.936 101.948C141.799 100.254 140.201 97.862 139.366 95.1121C138.532 92.3622 138.504 89.3932 139.287 86.625C140.07 83.8568 141.624 81.4296 143.729 79.6868C145.834 77.9439 148.383 76.9736 151.017 76.9132C153.65 76.8527 156.234 77.7051 158.403 79.3498C160.572 80.9945 162.217 83.3483 163.104 86.0781C163.991 88.8079 164.076 91.7757 163.346 94.5615C162.588 97.4414 161.002 99.9727 158.825 101.775C156.648 103.578 153.998 104.554 151.274 104.557ZM151.266 80.0067C148.793 80.005 146.412 81.0351 144.603 82.8893C142.793 84.7435 141.689 87.2839 141.514 89.9983C141.339 92.7127 142.105 95.3993 143.658 97.5165C145.212 99.6337 147.436 101.024 149.884 101.407C152.332 101.79 154.821 101.138 156.849 99.581C158.876 98.0244 160.293 95.6794 160.812 93.0188C161.331 90.3582 160.915 87.5799 159.646 85.244C158.378 82.908 156.352 81.1882 153.978 80.4312C153.096 80.1505 152.183 80.0076 151.266 80.0067Z" fill="#0A0A0A"/>
<path d="M140.669 121.593C140.439 121.593 140.213 121.531 140.009 121.412C139.806 121.293 139.632 121.122 139.503 120.912C139.374 120.703 139.294 120.461 139.269 120.21C139.244 119.958 139.276 119.704 139.361 119.468L145.767 101.777C145.91 101.402 146.18 101.103 146.521 100.945C146.862 100.787 147.245 100.783 147.589 100.933C147.932 101.084 148.208 101.377 148.357 101.75C148.506 102.122 148.516 102.544 148.384 102.925L141.978 120.616C141.874 120.904 141.693 121.151 141.46 121.326C141.226 121.5 140.951 121.593 140.669 121.593Z" fill="#0A0A0A"/>
<path d="M135.764 119.652L139.693 109.953C139.779 109.739 139.905 109.548 140.062 109.392C140.219 109.235 140.404 109.116 140.605 109.042C140.807 108.969 141.019 108.942 141.23 108.964C141.442 108.986 141.646 109.056 141.831 109.169C142.167 109.391 142.417 109.742 142.531 110.155C142.645 110.567 142.616 111.012 142.449 111.402L141.607 113.482L146.984 108.28C147.572 107.69 148.637 107.38 149.195 108.151C149.427 108.432 149.566 108.791 149.589 109.17C149.611 109.549 149.517 109.925 149.32 110.237C149.327 110.242 149.333 110.247 149.338 110.253C149.341 110.259 149.344 110.264 149.347 110.27L150.255 109.361C150.423 109.192 150.623 109.067 150.841 108.995C151.058 108.923 151.288 108.904 151.513 108.942C151.737 108.98 151.952 109.072 152.14 109.212C152.328 109.353 152.486 109.537 152.601 109.753C152.776 110.097 152.838 110.497 152.778 110.885C152.717 111.274 152.537 111.628 152.268 111.888L151.882 112.275C151.887 112.292 151.889 112.31 151.888 112.329C152.204 112.134 152.573 112.069 152.929 112.146C153.284 112.223 153.603 112.437 153.829 112.749C154.066 113.098 154.175 113.533 154.134 113.968C154.093 114.402 153.905 114.803 153.607 115.091L152.648 116.052C152.67 116.049 152.693 116.052 152.714 116.06C152.735 116.069 152.754 116.083 152.769 116.101C152.786 116.123 152.797 116.151 152.8 116.18C153.125 116.092 153.468 116.125 153.774 116.273C154.081 116.42 154.336 116.674 154.498 116.996C154.663 117.339 154.718 117.732 154.654 118.113C154.59 118.494 154.411 118.84 154.146 119.095L146.052 127.206C144.919 128.341 143.505 129.078 141.989 129.322C140.474 129.566 138.927 129.307 137.547 128.577C136.356 127.947 135.436 126.832 134.981 125.468C134.526 124.103 134.572 122.597 135.11 121.27L135.764 119.652Z" fill="#E98862"/>
<g opacity="0.2">
<path d="M144.022 115.414C144.047 115.444 144.081 115.462 144.118 115.464C144.155 115.466 144.191 115.452 144.219 115.425L149.326 110.471C149.34 110.458 149.351 110.441 149.36 110.423C149.368 110.405 149.372 110.385 149.374 110.364C149.375 110.344 149.372 110.324 149.366 110.304C149.36 110.285 149.351 110.267 149.339 110.252C149.326 110.237 149.311 110.224 149.295 110.215C149.278 110.207 149.26 110.201 149.242 110.2C149.223 110.199 149.205 110.201 149.187 110.208C149.17 110.215 149.154 110.225 149.14 110.239L144.033 115.193C144.019 115.206 144.008 115.223 143.999 115.241C143.991 115.259 143.987 115.279 143.985 115.3C143.984 115.32 143.987 115.34 143.993 115.36C143.999 115.379 144.008 115.397 144.02 115.412L144.022 115.414Z" fill="#0C0C0C"/>
</g>
<g opacity="0.2">
<path d="M145.945 117.954C145.97 117.984 146.004 118.002 146.041 118.004C146.078 118.006 146.114 117.992 146.142 117.965L151.842 112.436C151.856 112.422 151.867 112.406 151.875 112.388C151.883 112.369 151.888 112.349 151.889 112.329C151.89 112.309 151.888 112.288 151.882 112.269C151.876 112.25 151.866 112.232 151.854 112.217C151.829 112.187 151.794 112.169 151.757 112.167C151.72 112.164 151.684 112.177 151.655 112.203L145.955 117.732C145.942 117.746 145.93 117.762 145.922 117.78C145.914 117.799 145.909 117.818 145.908 117.839C145.907 117.859 145.909 117.879 145.915 117.899C145.921 117.918 145.931 117.936 145.943 117.951L145.945 117.954Z" fill="#0C0C0C"/>
</g>
<g opacity="0.2">
<path d="M148.013 120.717C148.038 120.747 148.073 120.765 148.11 120.767C148.147 120.769 148.183 120.755 148.21 120.728L152.757 116.318C152.771 116.305 152.782 116.288 152.79 116.27C152.798 116.252 152.803 116.232 152.804 116.212C152.806 116.191 152.803 116.171 152.797 116.152C152.791 116.132 152.782 116.115 152.769 116.099C152.757 116.084 152.742 116.072 152.726 116.063C152.709 116.054 152.691 116.048 152.673 116.047C152.654 116.046 152.636 116.049 152.618 116.055C152.601 116.062 152.584 116.072 152.571 116.086L148.024 120.496C148.01 120.509 147.999 120.526 147.991 120.544C147.982 120.562 147.978 120.582 147.976 120.603C147.975 120.623 147.978 120.643 147.984 120.663C147.99 120.682 147.999 120.7 148.012 120.715L148.013 120.717Z" fill="#0C0C0C"/>
</g>
<path d="M133.309 116.503L109.489 146.027L85.4202 123.108L71.597 140.694L103.55 171.122L103.766 171.327C103.841 171.397 103.916 171.466 103.992 171.535C106.122 173.431 108.849 174.319 111.573 174.003C114.298 173.686 116.796 172.192 118.52 169.848L147.796 130.022L133.309 116.503Z" fill="#095E40"/>
<path d="M70.8868 117.873C70.822 117.864 69.0473 125.215 55.1961 124.071C45.6071 123.28 43.269 116.096 43.0493 116.096C44.0831 115.855 45.762 115.603 46.2212 115.334C47.7311 114.441 48.8309 113.354 49.3847 111.021C49.8177 109.196 50.0382 102.173 50.0382 98.6494L64.7936 102.299C64.588 106.274 63.1485 115.489 68.1937 117.12C69.0332 117.389 69.9375 117.637 70.8868 117.873Z" fill="#E98862"/>
<path d="M64.2838 110.114C58.4669 110.619 50.9946 107.915 49.5751 99.3732L48.2945 91.6658C46.875 83.1237 49.8008 75.3784 57.108 73.9075C64.415 72.4366 71.0276 78.262 72.4468 86.8041L73.0139 90.2147C73.5576 93.4939 74.6616 109.212 64.2838 110.114Z" fill="#E98862"/>
<path d="M69.6766 102.272C68.6326 96.4973 68.1537 92.6449 68.2092 88.5803C69.68 85.7408 69.2932 82.4821 68.9588 81.0738C70.4003 81.9395 71.0031 82.035 72.3598 82.035C72.3598 82.035 69.9276 71.2911 61.6609 68.4002C60.1397 67.749 56.2596 66.9265 51.1062 67.7044C46.7229 68.3661 35.9181 71.9736 34.3732 85.3622V85.37C34.3219 85.814 33.2847 98.1499 31.2165 104.069C28.4358 112.025 24.5326 114.497 24.6315 123.677C24.7588 135.485 44.4817 137.057 56.379 136.174C68.2763 135.291 74.9148 130.985 75.0016 122.475C75.0973 112.938 71.7657 113.824 69.6766 102.272Z" fill="#0A0A0A"/>
<path d="M69.68 97.4308C67.4593 97.8776 65.2246 95.6254 64.8187 93.1812C64.4128 90.737 65.9886 89.0264 68.2092 88.5796L69.68 97.4308Z" fill="#E98862"/>
<path d="M85.9354 154.502C85.9266 154.502 85.9179 154.501 85.9092 154.499C85.891 154.496 85.8737 154.488 85.8581 154.477C85.8426 154.466 85.8292 154.451 85.8188 154.434C85.8083 154.418 85.801 154.399 85.7971 154.379C85.7933 154.359 85.7931 154.338 85.7966 154.318L87.2141 146.052C87.2169 146.031 87.2234 146.012 87.2333 145.994C87.2432 145.976 87.2563 145.961 87.2717 145.949C87.2872 145.937 87.3047 145.928 87.3232 145.924C87.3417 145.919 87.3608 145.919 87.3795 145.923C87.3981 145.926 87.4158 145.934 87.4316 145.946C87.4473 145.958 87.4608 145.973 87.4712 145.99C87.4816 146.007 87.4886 146.027 87.492 146.048C87.4954 146.068 87.4949 146.089 87.4907 146.109L86.0735 154.376C86.0673 154.412 86.0502 154.443 86.025 154.466C85.9998 154.489 85.9681 154.502 85.9354 154.502Z" fill="#0C0C0C"/>
<path d="M23.2219 196.302C23.1855 196.302 23.1505 196.286 23.1242 196.258C23.098 196.231 23.0825 196.193 23.081 196.153L21.3289 146.086C21.3281 146.066 21.331 146.045 21.3374 146.026C21.3438 146.007 21.3535 145.99 21.3661 145.975C21.3786 145.96 21.3938 145.947 21.4106 145.939C21.4274 145.93 21.4456 145.926 21.4641 145.925C21.5009 145.925 21.5364 145.941 21.5634 145.968C21.5905 145.996 21.6072 146.034 21.6103 146.074L23.3627 196.141C23.3634 196.161 23.3605 196.181 23.3541 196.2C23.3477 196.219 23.3379 196.237 23.3253 196.252C23.3127 196.267 23.2976 196.279 23.2807 196.287C23.2639 196.296 23.2457 196.301 23.2272 196.302H23.2219Z" fill="#0C0C0C"/>
<path d="M107.891 148.571C107.865 148.571 107.839 148.563 107.817 148.548C107.794 148.533 107.777 148.511 107.765 148.485C107.753 148.459 107.748 148.431 107.751 148.402C107.753 148.373 107.762 148.346 107.778 148.323L109.377 145.935C109.4 145.903 109.433 145.882 109.469 145.876C109.506 145.87 109.543 145.881 109.573 145.905C109.602 145.929 109.622 145.965 109.628 146.005C109.634 146.045 109.625 146.086 109.604 146.119L108.003 148.508C107.99 148.527 107.973 148.543 107.954 148.554C107.934 148.565 107.913 148.571 107.891 148.571Z" fill="#0C0C0C"/>
<path d="M6.41288 214.104H288.011C288.086 214.104 288.157 214.071 288.21 214.013C288.263 213.955 288.293 213.876 288.293 213.794C288.293 213.712 288.263 213.633 288.21 213.575C288.157 213.517 288.086 213.484 288.011 213.484H6.41288C6.33817 213.484 6.26652 213.517 6.21369 213.575C6.16086 213.633 6.13118 213.712 6.13118 213.794C6.13118 213.876 6.16086 213.955 6.21369 214.013C6.26652 214.071 6.33817 214.104 6.41288 214.104Z" fill="#292A2E"/>
</g>
<defs>
<clipPath id="clip0_313_7670">
<rect width="298" height="213.159" fill="white" transform="translate(0 0.944824)"/>
</clipPath>
</defs>
</svg>
